<svg width="172" height="170" viewBox="0 0 172 170" fill="none" xmlns="http://www.w3.org/2000/svg">
<path d="M86 0C99.9044 0 112.365 6.32248 120.788 16.3105C122.521 16.1076 124.283 16 126.068 16C151.436 16.0001 172 37.0427 172 63C172 70.9493 170.068 78.4358 166.663 85C170.068 91.5642 172 99.0507 172 107C172 132.957 151.436 154 126.068 154C124.283 154 122.521 153.891 120.788 153.688C112.365 163.677 99.9047 170 86 170C72.0951 170 59.6338 163.677 51.2109 153.688C49.4785 153.891 47.7171 154 45.9316 154C20.5643 154 0 132.957 0 107C0 99.0509 1.93146 91.5641 5.33594 85C1.93146 78.4359 0 70.9491 0 63C0 37.0427 20.5643 16.0001 45.9316 16C47.7171 16 49.4786 16.1077 51.2109 16.3105C59.6338 6.3222 72.0954 0 86 0ZM85.999 125C84.3425 125 82.999 126.343 82.999 128V143C82.999 144.657 84.3425 146 85.999 146C87.6559 146 88.999 144.657 88.999 143V128C88.999 126.343 87.6559 125 85.999 125ZM44.7275 108.029C43.5559 106.858 41.6559 106.858 40.4844 108.029L29.8779 118.636C28.7066 119.807 28.7066 121.707 29.8779 122.879C31.0493 124.05 32.9485 124.05 34.1201 122.879L44.7275 112.272C45.8991 111.101 45.899 109.201 44.7275 108.029ZM131.514 108.029C130.342 106.858 128.443 106.858 127.271 108.029C126.1 109.201 126.1 111.101 127.271 112.272L137.878 122.879C139.049 124.05 140.949 124.05 142.12 122.879C143.292 121.707 143.292 119.807 142.12 118.636L131.514 108.029ZM34.1201 47.1211C32.9485 45.9501 31.0493 45.9498 29.8779 47.1211C28.7066 48.2926 28.7066 50.1927 29.8779 51.3643L40.4844 61.9707C41.6559 63.1422 43.5559 63.1421 44.7275 61.9707C45.899 60.7991 45.8991 58.8991 44.7275 57.7275L34.1201 47.1211ZM142.12 47.1211C140.949 45.9501 139.049 45.9498 137.878 47.1211L127.271 57.7275C126.1 58.8991 126.1 60.7992 127.271 61.9707C128.443 63.142 130.342 63.1418 131.514 61.9707L142.12 51.3643C143.292 50.1927 143.292 48.2927 142.12 47.1211ZM85.999 25C84.3425 25.0003 82.999 26.3434 82.999 28V43C82.999 44.6566 84.3425 45.9997 85.999 46C87.6559 46 88.999 44.6569 88.999 43V28C88.999 26.3431 87.6559 25 85.999 25Z" fill="black"/>
</svg>
