<svg width="176" height="174" viewBox="0 0 176 174" fill="none" xmlns="http://www.w3.org/2000/svg">
<path d="M88 2C101.904 2 114.365 8.32248 122.788 18.3105C124.521 18.1076 126.283 18 128.068 18C153.436 18.0001 174 39.0427 174 65C174 72.9493 172.068 80.4358 168.663 87C172.068 93.5642 174 101.051 174 109C174 134.957 153.436 156 128.068 156C126.283 156 124.521 155.891 122.788 155.688C114.365 165.677 101.905 172 88 172C74.0951 172 61.6338 165.677 53.2109 155.688C51.4785 155.891 49.7171 156 47.9316 156C22.5643 156 2 134.957 2 109C2 101.051 3.93146 93.5641 7.33594 87C3.93146 80.4359 2 72.9491 2 65C2 39.0427 22.5643 18.0001 47.9316 18C49.7171 18 51.4786 18.1077 53.2109 18.3105C61.6338 8.3222 74.0954 2 88 2ZM87.999 127C86.3425 127 84.999 128.343 84.999 130V145C84.999 146.657 86.3425 148 87.999 148C89.6559 148 90.999 146.657 90.999 145V130C90.999 128.343 89.6559 127 87.999 127ZM46.7275 110.029C45.5559 108.858 43.6559 108.858 42.4844 110.029L31.8779 120.636C30.7066 121.807 30.7066 123.707 31.8779 124.879C33.0493 126.05 34.9485 126.05 36.1201 124.879L46.7275 114.272C47.8991 113.101 47.899 111.201 46.7275 110.029ZM133.514 110.029C132.342 108.858 130.443 108.858 129.271 110.029C128.1 111.201 128.1 113.101 129.271 114.272L139.878 124.879C141.049 126.05 142.949 126.05 144.12 124.879C145.292 123.707 145.292 121.807 144.12 120.636L133.514 110.029ZM36.1201 49.1211C34.9485 47.9501 33.0493 47.9498 31.8779 49.1211C30.7066 50.2926 30.7066 52.1927 31.8779 53.3643L42.4844 63.9707C43.6559 65.1422 45.5559 65.1421 46.7275 63.9707C47.899 62.7991 47.8991 60.8991 46.7275 59.7275L36.1201 49.1211ZM144.12 49.1211C142.949 47.9501 141.049 47.9498 139.878 49.1211L129.271 59.7275C128.1 60.8991 128.1 62.7992 129.271 63.9707C130.443 65.142 132.342 65.1418 133.514 63.9707L144.12 53.3643C145.292 52.1927 145.292 50.2927 144.12 49.1211ZM87.999 27C86.3425 27.0003 84.999 28.3434 84.999 30V45C84.999 46.6566 86.3425 47.9997 87.999 48C89.6559 48 90.999 46.6569 90.999 45V30C90.999 28.3431 89.6559 27 87.999 27Z" fill="white"/>
<path d="M122.788 18.3105L121.259 19.5999C121.692 20.1133 122.354 20.3751 123.021 20.297L122.788 18.3105ZM128.068 18L128.068 16H128.068V18ZM168.663 87L166.888 86.0792C166.588 86.6565 166.588 87.3435 166.888 87.9208L168.663 87ZM128.068 156V158H128.068L128.068 156ZM122.788 155.688L123.021 153.702C122.354 153.624 121.692 153.886 121.259 154.399L122.788 155.688ZM53.2109 155.688L54.7399 154.399C54.307 153.886 53.6453 153.624 52.9783 153.702L53.2109 155.688ZM47.9316 156L47.9316 158H47.9316V156ZM7.33594 87L9.11135 87.9208C9.4108 87.3435 9.4108 86.6565 9.11135 86.0792L7.33594 87ZM47.9316 18V16H47.9316L47.9316 18ZM53.2109 18.3105L52.9783 20.297C53.6453 20.3751 54.307 20.1132 54.7399 19.5999L53.2109 18.3105ZM87.999 127V125H87.9986L87.999 127ZM84.999 130H82.999V130H84.999ZM87.999 148L87.9986 150H87.999V148ZM90.999 145H92.999V145H90.999ZM46.7275 110.029L48.1418 108.615L48.1416 108.615L46.7275 110.029ZM31.8779 120.636L30.4637 119.222L30.4636 119.222L31.8779 120.636ZM31.8779 124.879L30.4636 126.293L30.4638 126.293L31.8779 124.879ZM36.1201 124.879L37.534 126.293L37.5343 126.293L36.1201 124.879ZM46.7275 114.272L48.1417 115.687L48.1418 115.687L46.7275 114.272ZM133.514 110.029L134.928 108.615L134.928 108.615L133.514 110.029ZM129.271 110.029L127.857 108.615L127.857 108.615L129.271 110.029ZM129.271 114.272L127.857 115.687L127.857 115.687L129.271 114.272ZM139.878 124.879L138.464 126.293L138.464 126.293L139.878 124.879ZM144.12 124.879L145.534 126.293L145.534 126.293L144.12 124.879ZM144.12 120.636L142.706 122.05L144.12 120.636ZM36.1201 49.1211L37.5343 47.7068L37.534 47.7065L36.1201 49.1211ZM31.8779 49.1211L30.4638 47.7068L30.4636 47.707L31.8779 49.1211ZM31.8779 53.3643L30.4636 54.7783L30.4637 54.7785L31.8779 53.3643ZM46.7275 63.9707L48.1416 65.385L48.1418 65.3848L46.7275 63.9707ZM46.7275 59.7275L48.1418 58.3133L48.1417 58.3133L46.7275 59.7275ZM144.12 49.1211L145.534 47.7069L145.534 47.7065L144.12 49.1211ZM139.878 49.1211L138.464 47.7068L138.464 47.7069L139.878 49.1211ZM129.271 59.7275L127.857 58.3133L127.857 58.3135L129.271 59.7275ZM129.271 63.9707L127.857 65.3848L127.857 65.385L129.271 63.9707ZM133.514 63.9707L134.928 65.3852L134.928 65.3849L133.514 63.9707ZM144.12 53.3643L145.534 54.7785L144.12 53.3643ZM87.999 27V25H87.9986L87.999 27ZM84.999 45H82.999V45H84.999ZM87.999 48L87.9986 50H87.999V48ZM90.999 30H92.999V30H90.999ZM84.551 0.124994C83.4493 0.205118 82.6212 1.16314 82.7013 2.2648C82.7815 3.36646 83.7395 4.19458 84.8411 4.11446L84.6961 2.11972L84.551 0.124994ZM78.5968 5.03277C79.6748 4.79202 80.3535 3.72296 80.1128 2.64494C79.8721 1.56693 78.803 0.888185 77.725 1.12893L78.1609 3.08085L78.5968 5.03277ZM71.1197 3.12554C70.0888 3.52216 69.5746 4.67939 69.9712 5.7103C70.3678 6.74121 71.5251 7.25541 72.556 6.85879L71.8379 4.99217L71.1197 3.12554ZM66.8449 9.5512C67.807 9.00863 68.1472 7.78883 67.6046 6.8267C67.062 5.86457 65.8422 5.52445 64.8801 6.06702L65.8625 7.80911L66.8449 9.5512ZM59.1352 9.87788C58.2609 10.553 58.0995 11.809 58.7746 12.6832C59.4497 13.5575 60.7057 13.7189 61.58 13.0438L60.3576 11.4608L59.1352 9.87788ZM56.8637 17.2542C57.6335 16.462 57.6154 15.1958 56.8233 14.426C56.0311 13.6562 54.7649 13.6744 53.9951 14.4665L55.4294 15.8603L56.8637 17.2542ZM52.0708 16.1832C50.9705 16.0861 49.9998 16.8994 49.9028 17.9997C49.8057 19.1 50.619 20.0707 51.7193 20.1677L51.895 18.1754L52.0708 16.1832ZM49.195 20.0188C50.2991 20.0515 51.2207 19.183 51.2534 18.0789C51.2862 16.9749 50.4177 16.0533 49.3136 16.0205L49.2543 18.0196L49.195 20.0188ZM44.7562 16.1059C43.6541 16.1796 42.8205 17.1328 42.8942 18.235C42.968 19.3371 43.9212 20.1707 45.0233 20.097L44.8898 18.1014L44.7562 16.1059ZM39.2687 20.8744C40.3508 20.6527 41.0483 19.5958 40.8267 18.5137C40.6051 17.4316 39.5482 16.7341 38.4661 16.9557L38.8674 18.915L39.2687 20.8744ZM32.3452 18.6495C31.3031 19.0157 30.7551 20.1573 31.1213 21.1994C31.4874 22.2415 32.6291 22.7895 33.6712 22.4233L33.0082 20.5364L32.3452 18.6495ZM28.3336 24.7144C29.317 24.2115 29.7065 23.0065 29.2035 22.0231C28.7005 21.0397 27.4956 20.6502 26.5122 21.1532L27.4229 22.9338L28.3336 24.7144ZM21.0688 24.4127C20.1609 25.0419 19.935 26.2879 20.5641 27.1957C21.1932 28.1036 22.4393 28.3296 23.3471 27.7004L22.208 26.0566L21.0688 24.4127ZM18.795 31.3207C19.6126 30.578 19.6733 29.3131 18.9306 28.4955C18.1879 27.6779 16.923 27.6172 16.1054 28.3599L17.4502 29.8403L18.795 31.3207ZM11.7009 32.9182C10.9865 33.7606 11.0903 35.0227 11.9327 35.7371C12.7752 36.4515 14.0373 36.3477 14.7516 35.5052L13.2263 34.2117L11.7009 32.9182ZM11.2815 40.1787C11.8815 39.2513 11.6159 38.0131 10.6885 37.4132C9.76102 36.8132 8.52284 37.0788 7.92292 38.0062L9.60223 39.0925L11.2815 40.1787ZM4.83098 43.5373C4.35515 44.5342 4.77751 45.728 5.77434 46.2038C6.77116 46.6796 7.96498 46.2573 8.44081 45.2604L6.63589 44.3989L4.83098 43.5373ZM6.27589 50.664C6.62002 49.6144 6.04813 48.4846 4.99854 48.1404C3.94895 47.7963 2.81911 48.3682 2.47498 49.4178L4.37543 50.0409L6.27589 50.664ZM0.890627 55.5518C0.68327 56.6367 1.39468 57.6843 2.47962 57.8917C3.56455 58.0991 4.61216 57.3876 4.81951 56.3027L2.85507 55.9273L0.890627 55.5518ZM4.09078 62.0825C4.15961 60.9801 3.32172 60.0306 2.21929 59.9618C1.11687 59.8929 0.167385 60.7308 0.0985572 61.8333L2.09467 61.9579L4.09078 62.0825ZM0.0869318 67.9726C0.151604 69.0753 1.09792 69.9168 2.2006 69.8521C3.30327 69.7874 4.14474 68.8411 4.08007 67.7384L2.0835 67.8555L0.0869318 67.9726ZM4.72354 73.1736C4.5286 72.0864 3.4892 71.363 2.40196 71.558C1.31473 71.7529 0.59139 72.7923 0.786332 73.8796L2.75494 73.5266L4.72354 73.1736ZM2.18582 79.6632C2.50964 80.7193 3.62823 81.3129 4.68427 80.9891C5.74031 80.6652 6.33389 79.5466 6.01008 78.4906L4.09795 79.0769L2.18582 79.6632ZM7.92558 83.6136C7.47708 82.6042 6.2952 82.1495 5.28579 82.598C4.27637 83.0465 3.82166 84.2284 4.27015 85.2378L6.09787 84.4257L7.92558 83.6136ZM4.27015 88.7622C3.82166 89.7716 4.27637 90.9535 5.28579 91.402C6.2952 91.8505 7.47708 91.3958 7.92558 90.3864L6.09787 89.5743L4.27015 88.7622ZM6.01008 95.5094C6.33389 94.4534 5.74031 93.3348 4.68427 93.0109C3.62823 92.6871 2.50964 93.2807 2.18582 94.3368L4.09795 94.9231L6.01008 95.5094ZM0.786332 100.12C0.59139 101.208 1.31473 102.247 2.40196 102.442C3.4892 102.637 4.5286 101.914 4.72354 100.826L2.75494 100.473L0.786332 100.12ZM4.08007 106.262C4.14474 105.159 3.30327 104.213 2.2006 104.148C1.09792 104.083 0.151603 104.925 0.0869317 106.027L2.0835 106.144L4.08007 106.262ZM0.0985574 112.167C0.167385 113.269 1.11687 114.107 2.21929 114.038C3.32172 113.969 4.15961 113.02 4.09078 111.918L2.09467 112.042L0.0985574 112.167ZM4.81951 117.697C4.61216 116.612 3.56455 115.901 2.47962 116.108C1.39469 116.316 0.683271 117.363 0.890628 118.448L2.85507 118.073L4.81951 117.697ZM2.47498 124.582C2.81911 125.632 3.94895 126.204 4.99854 125.86C6.04814 125.515 6.62002 124.386 6.27589 123.336L4.37543 123.959L2.47498 124.582ZM8.44081 128.74C7.96499 127.743 6.77117 127.32 5.77434 127.796C4.77751 128.272 4.35516 129.466 4.83098 130.463L6.6359 129.601L8.44081 128.74ZM7.92293 135.994C8.52285 136.921 9.76103 137.187 10.6885 136.587C11.6159 135.987 11.8815 134.749 11.2815 133.821L9.60224 134.908L7.92293 135.994ZM14.7516 138.495C14.0373 137.652 12.7752 137.549 11.9327 138.263C11.0903 138.977 10.9865 140.239 11.7009 141.082L13.2263 139.788L14.7516 138.495ZM16.1054 145.64C16.923 146.383 18.1879 146.322 18.9306 145.504C19.6733 144.687 19.6126 143.422 18.795 142.679L17.4502 144.16L16.1054 145.64ZM23.3471 146.3C22.4393 145.67 21.1932 145.896 20.5641 146.804C19.935 147.712 20.1609 148.958 21.0688 149.587L22.208 147.943L23.3471 146.3ZM26.5122 152.847C27.4956 153.35 28.7005 152.96 29.2035 151.977C29.7065 150.993 29.317 149.789 28.3336 149.286L27.4229 151.066L26.5122 152.847ZM33.6712 151.577C32.6291 151.211 31.4874 151.758 31.1213 152.801C30.7552 153.843 31.3031 154.984 32.3452 155.35L33.0082 153.464L33.6712 151.577ZM38.4661 157.044C39.5482 157.266 40.6051 156.568 40.8267 155.486C41.0483 154.404 40.3508 153.347 39.2687 153.126L38.8674 155.085L38.4661 157.044ZM45.0233 153.903C43.9212 153.829 42.968 154.663 42.8942 155.765C42.8205 156.867 43.6541 157.82 44.7562 157.894L44.8898 155.899L45.0233 153.903ZM49.314 157.979C50.4181 157.946 51.2864 157.025 51.2534 155.921C51.2205 154.816 50.2987 153.948 49.1946 153.981L49.2543 155.98L49.314 157.979ZM51.7189 153.831C50.6186 153.929 49.8055 154.9 49.9028 156C50.0001 157.1 50.9709 157.913 52.0712 157.816L51.8951 155.824L51.7189 153.831ZM53.9951 159.533C54.7648 160.325 56.031 160.343 56.8232 159.573C57.6154 158.803 57.6335 157.537 56.8637 156.745L55.4294 158.139L53.9951 159.533ZM61.5799 160.956C60.7057 160.28 59.4497 160.442 58.7746 161.316C58.0994 162.19 58.2608 163.446 59.135 164.121L60.3575 162.538L61.5799 160.956ZM64.8799 167.932C65.842 168.475 67.0618 168.135 67.6044 167.173C68.147 166.211 67.807 164.991 66.8448 164.448L65.8624 166.19L64.8799 167.932ZM72.5559 167.141C71.525 166.744 70.3678 167.258 69.9711 168.289C69.5745 169.32 70.0886 170.478 71.1195 170.874L71.8377 169.008L72.5559 167.141ZM77.7248 172.871C78.8028 173.112 79.8719 172.433 80.1127 171.355C80.3535 170.277 79.6747 169.208 78.5967 168.967L78.1608 170.919L77.7248 172.871ZM84.8411 169.886C83.7395 169.805 82.7814 170.634 82.7013 171.735C82.6212 172.837 83.4493 173.795 84.5509 173.875L84.696 171.88L84.8411 169.886ZM91.449 173.875C92.5507 173.795 93.3788 172.837 93.2986 171.735C93.2185 170.633 92.2605 169.805 91.1588 169.886L91.3039 171.88L91.449 173.875ZM97.403 168.967C96.325 169.208 95.6463 170.277 95.8871 171.355C96.1279 172.433 97.1969 173.112 98.2749 172.871L97.839 170.919L97.403 168.967ZM104.88 170.874C105.911 170.477 106.425 169.32 106.028 168.289C105.632 167.258 104.475 166.744 103.444 167.141L104.162 169.007L104.88 170.874ZM109.154 164.448C108.192 164.991 107.852 166.211 108.395 167.173C108.938 168.135 110.157 168.475 111.119 167.932L110.137 166.19L109.154 164.448ZM116.864 164.121C117.738 163.446 117.9 162.19 117.225 161.316C116.549 160.442 115.293 160.28 114.419 160.955L115.642 162.538L116.864 164.121ZM119.135 156.745C118.366 157.537 118.384 158.803 119.176 159.573C119.968 160.343 121.234 160.325 122.004 159.532L120.57 158.139L119.135 156.745ZM123.928 157.816C125.028 157.913 125.999 157.1 126.096 156C126.194 154.9 125.381 153.929 124.28 153.832L124.104 155.824L123.928 157.816ZM126.805 153.981C125.701 153.948 124.779 154.816 124.746 155.921C124.713 157.025 125.582 157.946 126.686 157.979L126.745 155.98L126.805 153.981ZM131.244 157.894C132.346 157.82 133.18 156.867 133.106 155.765C133.032 154.663 132.079 153.829 130.977 153.903L131.11 155.899L131.244 157.894ZM136.731 153.126C135.649 153.347 134.952 154.404 135.173 155.486C135.395 156.568 136.452 157.266 137.534 157.044L137.133 155.085L136.731 153.126ZM143.655 155.35C144.697 154.984 145.245 153.843 144.879 152.801C144.513 151.758 143.371 151.211 142.329 151.577L142.992 153.464L143.655 155.35ZM147.666 149.286C146.683 149.789 146.294 150.993 146.797 151.977C147.299 152.96 148.504 153.35 149.488 152.847L148.577 151.066L147.666 149.286ZM154.931 149.587C155.839 148.958 156.065 147.712 155.436 146.804C154.807 145.896 153.561 145.67 152.653 146.3L153.792 147.943L154.931 149.587ZM157.205 142.679C156.387 143.422 156.327 144.687 157.069 145.504C157.812 146.322 159.077 146.383 159.895 145.64L158.55 144.16L157.205 142.679ZM164.299 141.082C165.014 140.239 164.91 138.977 164.067 138.263C163.225 137.549 161.963 137.652 161.248 138.495L162.774 139.788L164.299 141.082ZM164.718 133.821C164.119 134.749 164.384 135.987 165.312 136.587C166.239 137.187 167.477 136.921 168.077 135.994L166.398 134.908L164.718 133.821ZM171.169 130.463C171.645 129.466 171.222 128.272 170.226 127.796C169.229 127.32 168.035 127.743 167.559 128.74L169.364 129.601L171.169 130.463ZM169.724 123.336C169.38 124.386 169.952 125.515 171.001 125.86C172.051 126.204 173.181 125.632 173.525 124.582L171.625 123.959L169.724 123.336ZM175.109 118.448C175.317 117.363 174.605 116.316 173.52 116.108C172.435 115.901 171.388 116.612 171.18 117.697L173.145 118.073L175.109 118.448ZM171.909 111.918C171.84 113.02 172.678 113.969 173.781 114.038C174.883 114.107 175.833 113.269 175.901 112.167L173.905 112.042L171.909 111.918ZM175.913 106.027C175.848 104.925 174.902 104.083 173.799 104.148C172.697 104.213 171.855 105.159 171.92 106.262L173.916 106.144L175.913 106.027ZM171.276 100.826C171.471 101.914 172.511 102.637 173.598 102.442C174.685 102.247 175.408 101.207 175.213 100.12L173.245 100.473L171.276 100.826ZM173.814 94.3366C173.49 93.2806 172.371 92.6871 171.315 93.0109C170.259 93.3348 169.665 94.4534 169.989 95.5095L171.901 94.923L173.814 94.3366ZM168.074 90.3864C168.522 91.3958 169.704 91.8505 170.713 91.402C171.723 90.9534 172.177 89.7715 171.729 88.7621L169.901 89.5743L168.074 90.3864ZM171.729 85.2379C172.177 84.2285 171.723 83.0466 170.713 82.598C169.704 82.1495 168.522 82.6042 168.074 83.6136L169.901 84.4257L171.729 85.2379ZM169.989 78.4905C169.665 79.5466 170.259 80.6652 171.315 80.9891C172.371 81.3129 173.49 80.7194 173.814 79.6634L171.901 79.077L169.989 78.4905ZM175.213 73.8797C175.408 72.7925 174.685 71.7531 173.598 71.5581C172.511 71.3631 171.471 72.0863 171.276 73.1736L173.245 73.5266L175.213 73.8797ZM171.92 67.7384C171.855 68.8411 172.697 69.7874 173.799 69.8521C174.902 69.9168 175.848 69.0754 175.913 67.9727L173.916 67.8555L171.92 67.7384ZM175.901 61.8333C175.833 60.7308 174.883 59.8929 173.781 59.9618C172.678 60.0306 171.84 60.9801 171.909 62.0825L173.905 61.9579L175.901 61.8333ZM171.18 56.3027C171.388 57.3876 172.435 58.0991 173.52 57.8917C174.605 57.6843 175.317 56.6367 175.109 55.5518L173.145 55.9273L171.18 56.3027ZM173.525 49.4178C173.181 48.3682 172.051 47.7963 171.001 48.1404C169.952 48.4846 169.38 49.6144 169.724 50.664L171.625 50.0409L173.525 49.4178ZM167.559 45.2604C168.035 46.2573 169.229 46.6796 170.226 46.2038C171.222 45.728 171.645 44.5342 171.169 43.5373L169.364 44.3989L167.559 45.2604ZM168.077 38.0062C167.477 37.0788 166.239 36.8132 165.312 37.4132C164.384 38.0131 164.119 39.2512 164.718 40.1787L166.398 39.0925L168.077 38.0062ZM161.248 35.5052C161.963 36.3477 163.225 36.4515 164.067 35.7371C164.91 35.0227 165.014 33.7606 164.299 32.9182L162.774 34.2117L161.248 35.5052ZM159.895 28.3599C159.077 27.6172 157.812 27.6779 157.069 28.4955C156.327 29.3131 156.387 30.578 157.205 31.3207L158.55 29.8403L159.895 28.3599ZM152.653 27.7004C153.561 28.3296 154.807 28.1036 155.436 27.1957C156.065 26.2879 155.839 25.0418 154.931 24.4127L153.792 26.0566L152.653 27.7004ZM149.488 21.1532C148.504 20.6502 147.299 21.0397 146.796 22.0231C146.294 23.0065 146.683 24.2115 147.666 24.7144L148.577 22.9338L149.488 21.1532ZM142.329 22.4233C143.371 22.7895 144.513 22.2415 144.879 21.1994C145.245 20.1573 144.697 19.0156 143.655 18.6495L142.992 20.5364L142.329 22.4233ZM137.534 16.9557C136.452 16.7341 135.395 17.4316 135.173 18.5137C134.952 19.5958 135.649 20.6527 136.731 20.8744L137.133 18.915L137.534 16.9557ZM130.977 20.097C132.079 20.1707 133.032 19.3371 133.106 18.235C133.18 17.1328 132.346 16.1796 131.244 16.1059L131.11 18.1014L130.977 20.097ZM126.686 16.0205C125.582 16.0532 124.714 16.9748 124.746 18.0789C124.779 19.183 125.701 20.0515 126.805 20.0188L126.745 18.0196L126.686 16.0205ZM124.28 20.1677C125.38 20.0706 126.194 19.1 126.096 17.9997C125.999 16.8994 125.029 16.0861 123.929 16.1832L124.104 18.1754L124.28 20.1677ZM122.004 14.4666C121.234 13.6744 119.968 13.6563 119.176 14.4261C118.384 15.1959 118.366 16.4621 119.135 17.2543L120.57 15.8604L122.004 14.4666ZM114.419 13.0439C115.293 13.719 116.549 13.5576 117.225 12.6834C117.9 11.8092 117.738 10.5532 116.864 9.87805L115.642 11.461L114.419 13.0439ZM111.119 6.06719C110.157 5.5246 108.937 5.86469 108.395 6.82681C107.852 7.78893 108.192 9.00873 109.154 9.55132L110.137 7.80925L111.119 6.06719ZM103.444 6.85887C104.474 7.2555 105.632 6.74133 106.028 5.71043C106.425 4.67953 105.911 3.52228 104.88 3.12565L104.162 4.99226L103.444 6.85887ZM98.2748 1.12897C97.1968 0.888212 96.1277 1.56694 95.887 2.64495C95.6462 3.72297 96.3249 4.79204 97.4029 5.0328L97.8389 3.08088L98.2748 1.12897ZM91.1588 4.11446C92.2604 4.19459 93.2185 3.36647 93.2986 2.26481C93.3787 1.16316 92.5506 0.205127 91.4489 0.124998L91.3038 2.11973L91.1588 4.11446ZM82.999 133.75C82.999 134.855 83.8945 135.75 84.999 135.75C86.1036 135.75 86.999 134.855 86.999 133.75H84.999H82.999ZM86.999 141.25C86.999 140.145 86.1036 139.25 84.999 139.25C83.8945 139.25 82.999 140.145 82.999 141.25H84.999H86.999ZM83.3794 146.915C83.8026 147.935 84.9728 148.419 85.993 147.996C87.0133 147.572 87.4973 146.402 87.0741 145.382L85.2267 146.148L83.3794 146.915ZM87.6171 145.925C86.5968 145.502 85.4266 145.986 85.0034 147.006C84.5802 148.026 85.0642 149.196 86.0844 149.62L86.8507 147.772L87.6171 145.925ZM89.9135 149.62C90.9338 149.197 91.4179 148.027 90.9948 147.006C90.5717 145.986 89.4016 145.502 88.3813 145.925L89.1474 147.772L89.9135 149.62ZM88.9239 145.382C88.5008 146.403 88.985 147.573 90.0053 147.996C91.0256 148.419 92.1957 147.935 92.6188 146.914L90.7714 146.148L88.9239 145.382ZM92.999 141.25C92.999 140.145 92.1036 139.25 90.999 139.25C89.8945 139.25 88.999 140.145 88.999 141.25H90.999H92.999ZM88.999 133.75C88.999 134.855 89.8945 135.75 90.999 135.75C92.1036 135.75 92.999 134.855 92.999 133.75H90.999H88.999ZM38.4185 111.267C37.6375 112.048 37.6375 113.314 38.4185 114.095C39.1996 114.876 40.4659 114.876 41.247 114.095L39.8328 112.681L38.4185 111.267ZM35.9438 119.398C36.7248 118.617 36.7248 117.351 35.9438 116.57C35.1627 115.789 33.8964 115.789 33.1153 116.57L34.5295 117.984L35.9438 119.398ZM29.3788 120.845C28.9567 121.865 29.4419 123.035 30.4627 123.457C31.4834 123.879 32.6531 123.394 33.0752 122.373L31.227 121.609L29.3788 120.845ZM33.0752 123.141C32.6531 122.121 31.4834 121.635 30.4627 122.058C29.4419 122.48 28.9567 123.649 29.3788 124.67L31.227 123.906L33.0752 123.141ZM32.0864 127.378C33.1071 127.8 34.2768 127.315 34.699 126.294C35.1211 125.273 34.6359 124.104 33.6152 123.682L32.8508 125.53L32.0864 127.378ZM34.3827 123.682C33.362 124.104 32.8768 125.273 33.299 126.294C33.7212 127.315 34.8909 127.8 35.9116 127.378L35.1472 125.53L34.3827 123.682ZM40.1861 123.642C40.9672 122.861 40.9673 121.594 40.1863 120.813C39.4052 120.032 38.1389 120.032 37.3578 120.813L38.772 122.227L40.1861 123.642ZM42.6615 115.51C41.8805 116.291 41.8804 117.557 42.6614 118.338C43.4424 119.119 44.7087 119.119 45.4898 118.338L44.0757 116.924L42.6615 115.51ZM133.305 107.53C132.285 107.108 131.115 107.593 130.693 108.614C130.27 109.635 130.756 110.804 131.776 111.227L132.541 109.378L133.305 107.53ZM131.009 111.227C132.03 110.804 132.515 109.635 132.092 108.614C131.67 107.593 130.501 107.108 129.48 107.53L130.244 109.378L131.009 111.227ZM126.772 110.238C126.35 111.259 126.835 112.429 127.856 112.851C128.877 113.273 130.047 112.787 130.469 111.767L128.621 111.002L126.772 110.238ZM130.469 112.535C130.047 111.514 128.877 111.029 127.856 111.451C126.835 111.873 126.35 113.043 126.772 114.064L128.621 113.299L130.469 112.535ZM130.509 118.338C131.29 119.119 132.556 119.119 133.337 118.338C134.118 117.557 134.118 116.291 133.337 115.51L131.923 116.924L130.509 118.338ZM138.641 120.813C137.859 120.032 136.593 120.032 135.812 120.813C135.031 121.594 135.031 122.86 135.812 123.642L137.226 122.227L138.641 120.813ZM140.086 127.378C141.107 127.8 142.277 127.315 142.699 126.294C143.121 125.273 142.636 124.104 141.615 123.682L140.851 125.53L140.086 127.378ZM142.383 123.682C141.362 124.104 140.877 125.273 141.299 126.294C141.721 127.315 142.891 127.8 143.912 127.378L143.147 125.53L142.383 123.682ZM146.619 124.67C147.042 123.65 146.556 122.48 145.536 122.058C144.515 121.635 143.345 122.121 142.923 123.141L144.771 123.906L146.619 124.67ZM142.923 122.373C143.345 123.394 144.515 123.879 145.536 123.457C146.556 123.035 147.042 121.865 146.619 120.844L144.771 121.609L142.923 122.373ZM142.883 116.57C142.102 115.789 140.835 115.789 140.054 116.57C139.273 117.351 139.273 118.617 140.054 119.398L141.469 117.984L142.883 116.57ZM134.751 114.095C135.532 114.876 136.798 114.876 137.579 114.095C138.361 113.314 138.361 112.048 137.579 111.267L136.165 112.681L134.751 114.095ZM35.9116 46.6222C34.8909 46.2 33.7212 46.6852 33.299 47.7059C32.8768 48.7266 33.362 49.8963 34.3827 50.3185L35.1472 48.4703L35.9116 46.6222ZM33.6152 50.3184C34.6359 49.8962 35.1211 48.7265 34.699 47.7058C34.2768 46.6851 33.1071 46.1999 32.0864 46.6221L32.8508 48.4702L33.6152 50.3184ZM29.3788 49.3299C28.9567 50.3506 29.4419 51.5203 30.4627 51.9424C31.4834 52.3646 32.6531 51.8793 33.0752 50.8586L31.227 50.0942L29.3788 49.3299ZM33.0752 51.6268C32.6531 50.6061 31.4834 50.1208 30.4627 50.5429C29.4419 50.965 28.9567 52.1347 29.3788 53.1554L31.227 52.3911L33.0752 51.6268ZM33.1153 57.4301C33.8964 58.2111 35.1627 58.2111 35.9438 57.4301C36.7248 56.649 36.7248 55.3827 35.9438 54.6017L34.5295 56.0159L33.1153 57.4301ZM41.247 59.9049C40.4659 59.1238 39.1996 59.1238 38.4185 59.9049C37.6375 60.6859 37.6375 61.9523 38.4185 62.7333L39.8328 61.3191L41.247 59.9049ZM42.6931 66.4699C43.7138 66.8921 44.8835 66.4068 45.3056 65.3861C45.7278 64.3654 45.2426 63.1957 44.2219 62.7736L43.4575 64.6217L42.6931 66.4699ZM44.99 62.7735C43.9693 63.1957 43.4841 64.3654 43.9062 65.3861C44.3284 66.4068 45.4981 66.892 46.5188 66.4698L45.7544 64.6217L44.99 62.7735ZM49.2267 63.762C49.6489 62.7413 49.1637 61.5716 48.143 61.1494C47.1223 60.7272 45.9526 61.2124 45.5304 62.2331L47.3786 62.9976L49.2267 63.762ZM45.5304 61.4651C45.9526 62.4858 47.1223 62.971 48.143 62.5488C49.1637 62.1266 49.6489 60.9569 49.2267 59.9362L47.3786 60.7006L45.5304 61.4651ZM45.4898 55.6616C44.7087 54.8806 43.4424 54.8807 42.6614 55.6618C41.8804 56.4429 41.8805 57.7092 42.6615 58.4902L44.0757 57.0759L45.4898 55.6616ZM37.3578 53.187C38.1389 53.968 39.4052 53.9679 40.1863 53.1869C40.9673 52.4058 40.9672 51.1394 40.1861 50.3584L38.772 51.7727L37.3578 53.187ZM135.812 50.3585C135.031 51.1395 135.031 52.4059 135.812 53.1869C136.593 53.968 137.859 53.968 138.641 53.1869L137.226 51.7727L135.812 50.3585ZM133.337 58.4901C134.118 57.7091 134.118 56.4428 133.337 55.6617C132.556 54.8807 131.29 54.8807 130.509 55.6617L131.923 57.0759L133.337 58.4901ZM126.772 59.9364C126.35 60.9571 126.835 62.1267 127.856 62.5489C128.877 62.971 130.047 62.4857 130.469 61.465L128.621 60.7007L126.772 59.9364ZM130.469 62.2332C130.047 61.2125 128.877 60.7272 127.856 61.1494C126.835 61.5715 126.35 62.7412 126.772 63.7619L128.621 62.9976L130.469 62.2332ZM129.48 66.4697C130.501 66.8919 131.67 66.4067 132.092 65.386C132.515 64.3654 132.03 63.1957 131.009 62.7734L130.244 64.6216L129.48 66.4697ZM131.776 62.7734C130.756 63.1956 130.27 64.3653 130.693 65.386C131.115 66.4067 132.285 66.8919 133.305 66.4697L132.541 64.6215L131.776 62.7734ZM137.579 62.7333C138.361 61.9523 138.361 60.6859 137.579 59.9049C136.798 59.1238 135.532 59.1238 134.751 59.9049L136.165 61.3191L137.579 62.7333ZM140.054 54.6017C139.273 55.3827 139.273 56.649 140.054 57.4301C140.835 58.2111 142.102 58.2111 142.883 57.4301L141.469 56.0159L140.054 54.6017ZM82.999 33.75C82.999 34.8546 83.8945 35.75 84.999 35.75C86.1036 35.75 86.999 34.8546 86.999 33.75H84.999H82.999ZM86.999 41.25C86.999 40.1454 86.1036 39.25 84.999 39.25C83.8945 39.25 82.999 40.1454 82.999 41.25H84.999H86.999ZM83.3794 46.9146C83.8026 47.9349 84.9728 48.4189 85.993 47.9957C87.0133 47.5724 87.4973 46.4022 87.0741 45.382L85.2267 46.1483L83.3794 46.9146ZM87.6171 45.9248C86.5968 45.5016 85.4266 45.9856 85.0034 47.0059C84.5802 48.0261 85.0642 49.1963 86.0844 49.6195L86.8507 47.7722L87.6171 45.9248ZM89.9135 49.6198C90.9338 49.1967 91.4179 48.0266 90.9948 47.0063C90.5717 45.9859 89.4016 45.5018 88.3813 45.9249L89.1474 47.7724L89.9135 49.6198ZM88.9239 45.3823C88.5008 46.4026 88.985 47.5727 90.0053 47.9958C91.0256 48.4189 92.1957 47.9348 92.6188 46.9145L90.7714 46.1484L88.9239 45.3823ZM92.999 41.25C92.999 40.1454 92.1036 39.25 90.999 39.25C89.8945 39.25 88.999 40.1454 88.999 41.25H90.999H92.999ZM88.999 33.75C88.999 34.8546 89.8945 35.75 90.999 35.75C92.1036 35.75 92.999 34.8546 92.999 33.75H90.999H88.999ZM88 2V0C86.8406 0 85.6904 0.0421208 84.551 0.124994L84.6961 2.11972L84.8411 4.11446C85.8841 4.0386 86.9375 4 88 4V2ZM78.1609 3.08085L77.725 1.12893C75.4591 1.63496 73.2531 2.30478 71.1197 3.12554L71.8379 4.99217L72.556 6.85879C74.5075 6.10799 76.5249 5.49547 78.5968 5.03277L78.1609 3.08085ZM65.8625 7.80911L64.8801 6.06702C62.8724 7.19924 60.9531 8.47405 59.1352 9.87788L60.3576 11.4608L61.58 13.0438C63.2471 11.7564 65.0061 10.5881 66.8449 9.5512L65.8625 7.80911ZM55.4294 15.8603L53.9951 14.4665C53.1951 15.2898 52.4235 16.1419 51.682 17.0212L53.2109 18.3105L54.7399 19.5999C55.4208 18.7924 56.1293 18.01 56.8637 17.2542L55.4294 15.8603ZM53.2109 18.3105L53.4436 16.3241C52.988 16.2708 52.5304 16.2237 52.0708 16.1832L51.895 18.1754L51.7193 20.1677C52.1406 20.2049 52.5603 20.248 52.9783 20.297L53.2109 18.3105ZM49.2543 18.0196L49.3136 16.0205C48.8546 16.0069 48.394 16 47.9316 16V18V20C48.3541 20 48.7752 20.0063 49.195 20.0188L49.2543 18.0196ZM47.9316 18L47.9316 16C46.865 16 45.8061 16.0357 44.7562 16.1059L44.8898 18.1014L45.0233 20.097C45.9843 20.0327 46.9541 20 47.9316 20L47.9316 18ZM38.8674 18.915L38.4661 16.9557C36.3733 17.3843 34.3298 17.9522 32.3452 18.6495L33.0082 20.5364L33.6712 22.4233C35.4863 21.7856 37.355 21.2663 39.2687 20.8744L38.8674 18.915ZM27.4229 22.9338L26.5122 21.1532C24.6227 22.1196 22.8049 23.2096 21.0688 24.4127L22.208 26.0566L23.3471 27.7004C24.9385 26.5977 26.6038 25.5992 28.3336 24.7144L27.4229 22.9338ZM17.4502 29.8403L16.1054 28.3599C14.5421 29.78 13.0706 31.3029 11.7009 32.9182L13.2263 34.2117L14.7516 35.5052C16.0095 34.0219 17.3605 32.6239 18.795 31.3207L17.4502 29.8403ZM9.60223 39.0925L7.92292 38.0062C6.78003 39.7731 5.74612 41.6202 4.83098 43.5373L6.63589 44.3989L8.44081 45.2604C9.28167 43.4989 10.2316 41.8019 11.2815 40.1787L9.60223 39.0925ZM4.37543 50.0409L2.47498 49.4178C1.82219 51.4087 1.29109 53.4565 0.890627 55.5518L2.85507 55.9273L4.81951 56.3027C5.18775 54.376 5.67599 52.4936 6.27589 50.664L4.37543 50.0409ZM2.09467 61.9579L0.0985572 61.8333C0.0331755 62.8805 0 63.9364 0 65H2H4C4 64.0196 4.03058 63.0468 4.09078 62.0825L2.09467 61.9579ZM2 65H0C0 65.9979 0.0292476 66.9891 0.0869318 67.9726L2.0835 67.8555L4.08007 67.7384C4.02696 66.8328 4 65.9198 4 65H2ZM2.75494 73.5266L0.786332 73.8796C1.13982 75.851 1.60881 77.7815 2.18582 79.6632L4.09795 79.0769L6.01008 78.4906C5.47977 76.7611 5.0486 74.9865 4.72354 73.1736L2.75494 73.5266ZM6.09787 84.4257L4.27015 85.2378C4.67427 86.1473 5.10473 87.042 5.56052 87.9208L7.33594 87L9.11135 86.0792C8.69251 85.2716 8.29694 84.4495 7.92558 83.6136L6.09787 84.4257ZM7.33594 87L5.56052 86.0792C5.10473 86.958 4.67427 87.8527 4.27015 88.7622L6.09787 89.5743L7.92558 90.3864C8.29694 89.5505 8.69251 88.7284 9.11135 87.9208L7.33594 87ZM4.09795 94.9231L2.18582 94.3368C1.60881 96.2185 1.13982 98.149 0.786332 100.12L2.75494 100.473L4.72354 100.826C5.0486 99.0135 5.47976 97.2389 6.01008 95.5094L4.09795 94.9231ZM2.0835 106.144L0.0869317 106.027C0.0292475 107.011 0 108.002 0 109H2H4C4 108.08 4.02696 107.167 4.08007 106.262L2.0835 106.144ZM2 109H0C0 110.064 0.0331755 111.12 0.0985574 112.167L2.09467 112.042L4.09078 111.918C4.03058 110.953 4 109.98 4 109H2ZM2.85507 118.073L0.890628 118.448C1.29109 120.543 1.8222 122.591 2.47498 124.582L4.37543 123.959L6.27589 123.336C5.676 121.506 5.18775 119.624 4.81951 117.697L2.85507 118.073ZM6.6359 129.601L4.83098 130.463C5.74613 132.38 6.78004 134.227 7.92293 135.994L9.60224 134.908L11.2815 133.821C10.2316 132.198 9.28167 130.501 8.44081 128.74L6.6359 129.601ZM13.2263 139.788L11.7009 141.082C13.0706 142.697 14.5421 144.22 16.1054 145.64L17.4502 144.16L18.795 142.679C17.3605 141.376 16.0095 139.978 14.7516 138.495L13.2263 139.788ZM22.208 147.943L21.0688 149.587C22.8049 150.79 24.6227 151.88 26.5122 152.847L27.4229 151.066L28.3336 149.286C26.6038 148.401 24.9385 147.402 23.3471 146.3L22.208 147.943ZM33.0082 153.464L32.3452 155.35C34.3298 156.048 36.3733 156.616 38.4661 157.044L38.8674 155.085L39.2687 153.126C37.355 152.734 35.4863 152.214 33.6712 151.577L33.0082 153.464ZM44.8898 155.899L44.7562 157.894C45.8061 157.964 46.865 158 47.9316 158L47.9316 156L47.9316 154C46.9541 154 45.9843 153.967 45.0233 153.903L44.8898 155.899ZM47.9316 156V158C48.3941 158 48.855 157.993 49.314 157.979L49.2543 155.98L49.1946 153.981C48.7749 153.994 48.3539 154 47.9316 154V156ZM51.8951 155.824L52.0712 157.816C52.5307 157.775 52.9882 157.728 53.4436 157.675L53.2109 155.688L52.9783 153.702C52.5601 153.751 52.1402 153.794 51.7189 153.831L51.8951 155.824ZM53.2109 155.688L51.682 156.978C52.4235 157.857 53.195 158.709 53.9951 159.533L55.4294 158.139L56.8637 156.745C56.1293 155.989 55.4208 155.207 54.7399 154.399L53.2109 155.688ZM60.3575 162.538L59.135 164.121C60.9529 165.525 62.8722 166.8 64.8799 167.932L65.8624 166.19L66.8448 164.448C65.0061 163.411 63.2471 162.243 61.5799 160.956L60.3575 162.538ZM71.8377 169.008L71.1195 170.874C73.2529 171.695 75.4589 172.365 77.7248 172.871L78.1608 170.919L78.5967 168.967C76.5248 168.504 74.5074 167.892 72.5559 167.141L71.8377 169.008ZM84.696 171.88L84.5509 173.875C85.6904 173.958 86.8406 174 88 174V172V170C86.9375 170 85.8841 169.961 84.8411 169.886L84.696 171.88ZM88 172V174C89.1594 174 90.3096 173.958 91.449 173.875L91.3039 171.88L91.1588 169.886C90.1158 169.961 89.0625 170 88 170V172ZM97.839 170.919L98.2749 172.871C100.541 172.365 102.747 171.695 104.88 170.874L104.162 169.007L103.444 167.141C101.492 167.892 99.4749 168.504 97.403 168.967L97.839 170.919ZM110.137 166.19L111.119 167.932C113.127 166.8 115.046 165.525 116.864 164.121L115.642 162.538L114.419 160.955C112.752 162.243 110.993 163.411 109.154 164.448L110.137 166.19ZM120.57 158.139L122.004 159.532C122.804 158.709 123.576 157.857 124.317 156.978L122.788 155.688L121.259 154.399C120.578 155.207 119.87 155.989 119.135 156.745L120.57 158.139ZM122.788 155.688L122.555 157.675C123.011 157.728 123.468 157.775 123.928 157.816L124.104 155.824L124.28 153.832C123.859 153.794 123.439 153.751 123.021 153.702L122.788 155.688ZM126.745 155.98L126.686 157.979C127.145 157.993 127.606 158 128.068 158V156V154C127.646 154 127.225 153.994 126.805 153.981L126.745 155.98ZM128.068 156L128.068 158C129.135 158 130.194 157.964 131.244 157.894L131.11 155.899L130.977 153.903C130.016 153.967 129.046 154 128.068 154L128.068 156ZM137.133 155.085L137.534 157.044C139.627 156.616 141.67 156.048 143.655 155.35L142.992 153.464L142.329 151.577C140.514 152.214 138.645 152.734 136.731 153.126L137.133 155.085ZM148.577 151.066L149.488 152.847C151.377 151.88 153.195 150.79 154.931 149.587L153.792 147.943L152.653 146.3C151.061 147.402 149.396 148.401 147.666 149.286L148.577 151.066ZM158.55 144.16L159.895 145.64C161.458 144.22 162.929 142.697 164.299 141.082L162.774 139.788L161.248 138.495C159.99 139.978 158.64 141.376 157.205 142.679L158.55 144.16ZM166.398 134.908L168.077 135.994C169.22 134.227 170.254 132.38 171.169 130.463L169.364 129.601L167.559 128.74C166.718 130.501 165.768 132.198 164.718 133.821L166.398 134.908ZM171.625 123.959L173.525 124.582C174.178 122.591 174.709 120.543 175.109 118.448L173.145 118.073L171.18 117.697C170.812 119.624 170.324 121.506 169.724 123.336L171.625 123.959ZM173.905 112.042L175.901 112.167C175.967 111.12 176 110.064 176 109H174H172C172 109.98 171.969 110.953 171.909 111.918L173.905 112.042ZM174 109H176C176 108.002 175.971 107.011 175.913 106.027L173.916 106.144L171.92 106.262C171.973 107.167 172 108.08 172 109H174ZM173.245 100.473L175.213 100.12C174.86 98.1488 174.391 96.2184 173.814 94.3366L171.901 94.923L169.989 95.5095C170.52 97.2389 170.951 99.0135 171.276 100.826L173.245 100.473ZM169.901 89.5743L171.729 88.7621C171.325 87.8526 170.894 86.958 170.438 86.0792L168.663 87L166.888 87.9208C167.307 88.7284 167.702 89.5506 168.074 90.3864L169.901 89.5743ZM168.663 87L170.438 87.9208C170.894 87.042 171.325 86.1474 171.729 85.2379L169.901 84.4257L168.074 83.6136C167.702 84.4494 167.307 85.2716 166.888 86.0792L168.663 87ZM171.901 79.077L173.814 79.6634C174.391 77.7816 174.86 75.8512 175.213 73.8797L173.245 73.5266L171.276 73.1736C170.951 74.9865 170.52 76.7611 169.989 78.4905L171.901 79.077ZM173.916 67.8555L175.913 67.9727C175.971 66.9891 176 65.998 176 65H174H172C172 65.9198 171.973 66.8328 171.92 67.7384L173.916 67.8555ZM174 65H176C176 63.9364 175.967 62.8805 175.901 61.8333L173.905 61.9579L171.909 62.0825C171.969 63.0468 172 64.0196 172 65H174ZM173.145 55.9273L175.109 55.5518C174.709 53.4565 174.178 51.4087 173.525 49.4178L171.625 50.0409L169.724 50.664C170.324 52.4936 170.812 54.376 171.18 56.3027L173.145 55.9273ZM169.364 44.3989L171.169 43.5373C170.254 41.6201 169.22 39.7731 168.077 38.0062L166.398 39.0925L164.718 40.1787C165.768 41.8019 166.718 43.4989 167.559 45.2604L169.364 44.3989ZM162.774 34.2117L164.299 32.9182C162.929 31.3029 161.458 29.78 159.895 28.3599L158.55 29.8403L157.205 31.3207C158.64 32.6239 159.99 34.0219 161.248 35.5052L162.774 34.2117ZM153.792 26.0566L154.931 24.4127C153.195 23.2096 151.377 22.1196 149.488 21.1532L148.577 22.9338L147.666 24.7144C149.396 25.5992 151.061 26.5977 152.653 27.7004L153.792 26.0566ZM142.992 20.5364L143.655 18.6495C141.67 17.9522 139.627 17.3843 137.534 16.9557L137.133 18.915L136.731 20.8744C138.645 21.2663 140.514 21.7856 142.329 22.4233L142.992 20.5364ZM131.11 18.1014L131.244 16.1059C130.194 16.0357 129.135 16 128.068 16L128.068 18L128.068 20C129.046 20 130.016 20.0327 130.977 20.097L131.11 18.1014ZM128.068 18V16C127.606 16 127.145 16.0069 126.686 16.0205L126.745 18.0196L126.805 20.0188C127.225 20.0063 127.646 20 128.068 20V18ZM124.104 18.1754L123.929 16.1832C123.469 16.2237 123.011 16.2708 122.555 16.3241L122.788 18.3105L123.021 20.297C123.439 20.248 123.859 20.2048 124.28 20.1677L124.104 18.1754ZM122.788 18.3105L124.317 17.0212C123.576 16.1419 122.804 15.2898 122.004 14.4666L120.57 15.8604L119.135 17.2543C119.87 18.01 120.578 18.7924 121.259 19.5999L122.788 18.3105ZM115.642 11.461L116.864 9.87805C115.046 8.47423 113.127 7.19941 111.119 6.06719L110.137 7.80925L109.154 9.55132C110.993 10.5883 112.752 11.7565 114.419 13.0439L115.642 11.461ZM104.162 4.99226L104.88 3.12565C102.747 2.30486 100.541 1.63502 98.2748 1.12897L97.8389 3.08088L97.4029 5.0328C99.4748 5.49552 101.492 6.10806 103.444 6.85887L104.162 4.99226ZM91.3038 2.11973L91.4489 0.124998C90.3095 0.0421224 89.1594 0 88 0V2V4C89.0625 4 90.1158 4.0386 91.1588 4.11446L91.3038 2.11973ZM87.999 127L87.9986 125C85.2382 125.001 82.999 127.238 82.999 130H84.999H86.999C86.999 129.448 87.4467 129 87.9994 129L87.999 127ZM84.999 130H82.999V133.75H84.999H86.999V130H84.999ZM84.999 141.25H82.999V145H84.999H86.999V141.25H84.999ZM84.999 145H82.999C82.999 145.674 83.1337 146.322 83.3794 146.915L85.2267 146.148L87.0741 145.382C87.0264 145.267 86.999 145.139 86.999 145H84.999ZM86.8507 147.772L86.0844 149.62C86.6767 149.865 87.3244 150 87.9986 150L87.999 148L87.9994 146C87.8602 146 87.7323 145.973 87.6171 145.925L86.8507 147.772ZM87.999 148V150C88.6733 150 89.3212 149.865 89.9135 149.62L89.1474 147.772L88.3813 145.925C88.2661 145.973 88.1383 146 87.999 146V148ZM90.7714 146.148L92.6188 146.914C92.8645 146.322 92.999 145.674 92.999 145H90.999H88.999C88.999 145.139 88.9717 145.267 88.9239 145.382L90.7714 146.148ZM90.999 145H92.999V141.25H90.999H88.999V145H90.999ZM90.999 133.75H92.999V130H90.999H88.999V133.75H90.999ZM90.999 130H92.999C92.999 127.239 90.7604 125 87.999 125V127V129C88.5513 129 88.999 129.448 88.999 130H90.999ZM46.7275 110.029L48.1416 108.615C46.1891 106.663 43.0228 106.662 41.0702 108.615L42.4844 110.029L43.8986 111.444C44.2889 111.053 44.9228 111.053 45.3135 111.444L46.7275 110.029ZM42.4844 110.029L41.0702 108.615L38.4185 111.267L39.8328 112.681L41.247 114.095L43.8986 111.444L42.4844 110.029ZM34.5295 117.984L33.1153 116.57L30.4637 119.222L31.8779 120.636L33.2921 122.05L35.9438 119.398L34.5295 117.984ZM31.8779 120.636L30.4636 119.222C29.9868 119.699 29.6239 120.252 29.3788 120.845L31.227 121.609L33.0752 122.373C33.1228 122.258 33.1939 122.148 33.2923 122.05L31.8779 120.636ZM31.227 123.906L29.3788 124.67C29.6239 125.263 29.9868 125.816 30.4636 126.293L31.8779 124.879L33.2923 123.465C33.1939 123.366 33.1228 123.257 33.0752 123.141L31.227 123.906ZM31.8779 124.879L30.4638 126.293C30.9406 126.77 31.4939 127.133 32.0864 127.378L32.8508 125.53L33.6152 123.682C33.5001 123.634 33.3905 123.563 33.2921 123.465L31.8779 124.879ZM35.1472 125.53L35.9116 127.378C36.504 127.133 37.0572 126.77 37.534 126.293L36.1201 124.879L34.7063 123.464C34.6078 123.563 34.498 123.634 34.3827 123.682L35.1472 125.53ZM36.1201 124.879L37.5343 126.293L40.1861 123.642L38.772 122.227L37.3578 120.813L34.706 123.465L36.1201 124.879ZM44.0757 116.924L45.4898 118.338L48.1417 115.687L46.7275 114.272L45.3134 112.858L42.6615 115.51L44.0757 116.924ZM46.7275 114.272L48.1418 115.687C50.0944 113.734 50.0942 110.568 48.1418 108.615L46.7275 110.029L45.3133 111.443C45.7038 111.834 45.7037 112.468 45.3133 112.858L46.7275 114.272ZM133.514 110.029L134.928 108.615C134.451 108.138 133.898 107.775 133.305 107.53L132.541 109.378L131.776 111.227C131.891 111.274 132.001 111.345 132.1 111.444L133.514 110.029ZM130.244 109.378L129.48 107.53C128.887 107.775 128.334 108.138 127.857 108.615L129.271 110.029L130.686 111.444C130.784 111.345 130.894 111.274 131.009 111.227L130.244 109.378ZM129.271 110.029L127.857 108.615C127.38 109.092 127.017 109.646 126.772 110.238L128.621 111.002L130.469 111.767C130.516 111.651 130.587 111.542 130.686 111.443L129.271 110.029ZM128.621 113.299L126.772 114.064C127.017 114.656 127.38 115.21 127.857 115.687L129.271 114.272L130.686 112.858C130.587 112.76 130.516 112.65 130.469 112.535L128.621 113.299ZM129.271 114.272L127.857 115.687L130.509 118.338L131.923 116.924L133.337 115.51L130.686 112.858L129.271 114.272ZM137.226 122.227L135.812 123.642L138.464 126.293L139.878 124.879L141.292 123.465L138.641 120.813L137.226 122.227ZM139.878 124.879L138.464 126.293C138.941 126.77 139.494 127.133 140.086 127.378L140.851 125.53L141.615 123.682C141.5 123.634 141.39 123.563 141.292 123.465L139.878 124.879ZM143.147 125.53L143.912 127.378C144.504 127.133 145.057 126.77 145.534 126.293L144.12 124.879L142.706 123.464C142.608 123.563 142.498 123.634 142.383 123.682L143.147 125.53ZM144.12 124.879L145.534 126.293C146.011 125.816 146.374 125.263 146.619 124.67L144.771 123.906L142.923 123.141C142.875 123.257 142.804 123.366 142.706 123.465L144.12 124.879ZM144.771 121.609L146.619 120.844C146.374 120.252 146.011 119.698 145.534 119.222L144.12 120.636L142.706 122.05C142.804 122.148 142.875 122.258 142.923 122.373L144.771 121.609ZM144.12 120.636L145.534 119.222L142.883 116.57L141.469 117.984L140.054 119.398L142.706 122.05L144.12 120.636ZM136.165 112.681L137.579 111.267L134.928 108.615L133.514 110.029L132.099 111.444L134.751 114.095L136.165 112.681ZM36.1201 49.1211L37.534 47.7065C37.0572 47.23 36.504 46.8672 35.9116 46.6222L35.1472 48.4703L34.3827 50.3185C34.498 50.3661 34.6078 50.4372 34.7063 50.5357L36.1201 49.1211ZM32.8508 48.4702L32.0864 46.6221C31.4939 46.8672 30.9406 47.2301 30.4638 47.7068L31.8779 49.1211L33.2921 50.5354C33.3905 50.437 33.5001 50.366 33.6152 50.3184L32.8508 48.4702ZM31.8779 49.1211L30.4636 47.707C29.9868 48.1839 29.6239 48.7373 29.3788 49.3299L31.227 50.0942L33.0752 50.8586C33.1228 50.7433 33.1939 50.6336 33.2923 50.5352L31.8779 49.1211ZM31.227 52.3911L29.3788 53.1554C29.6239 53.748 29.9868 54.3014 30.4636 54.7783L31.8779 53.3643L33.2923 51.9502C33.1939 51.8518 33.1228 51.7421 33.0752 51.6268L31.227 52.3911ZM31.8779 53.3643L30.4637 54.7785L33.1153 57.4301L34.5295 56.0159L35.9438 54.6017L33.2921 51.95L31.8779 53.3643ZM39.8328 61.3191L38.4185 62.7333L41.0702 65.3849L42.4844 63.9707L43.8986 62.5565L41.247 59.9049L39.8328 61.3191ZM42.4844 63.9707L41.0702 65.3849C41.547 65.8618 42.1005 66.2248 42.6931 66.4699L43.4575 64.6217L44.2219 62.7736C44.1067 62.7259 43.997 62.6549 43.8986 62.5565L42.4844 63.9707ZM45.7544 64.6217L46.5188 66.4698C47.1114 66.2247 47.6647 65.8618 48.1416 65.385L46.7275 63.9707L45.3135 62.5564C45.215 62.6548 45.1053 62.7259 44.99 62.7735L45.7544 64.6217ZM46.7275 63.9707L48.1418 65.3848C48.6186 64.908 48.9816 64.3546 49.2267 63.762L47.3786 62.9976L45.5304 62.2331C45.4827 62.3484 45.4117 62.4581 45.3133 62.5566L46.7275 63.9707ZM47.3786 60.7006L49.2267 59.9362C48.9816 59.3436 48.6186 58.7902 48.1418 58.3133L46.7275 59.7275L45.3133 61.1418C45.4117 61.2402 45.4828 61.3499 45.5304 61.4651L47.3786 60.7006ZM46.7275 59.7275L48.1417 58.3133L45.4898 55.6616L44.0757 57.0759L42.6615 58.4902L45.3134 61.1418L46.7275 59.7275ZM38.772 51.7727L40.1861 50.3584L37.5343 47.7068L36.1201 49.1211L34.706 50.5354L37.3578 53.187L38.772 51.7727ZM144.12 49.1211L145.534 47.7065C143.582 45.7552 140.417 45.7543 138.464 47.7068L139.878 49.1211L141.292 50.5354C141.682 50.1453 142.315 50.145 142.706 50.5357L144.12 49.1211ZM139.878 49.1211L138.464 47.7069L135.812 50.3585L137.226 51.7727L138.641 53.1869L141.292 50.5353L139.878 49.1211ZM131.923 57.0759L130.509 55.6617L127.857 58.3133L129.271 59.7275L130.686 61.1418L133.337 58.4901L131.923 57.0759ZM129.271 59.7275L127.857 58.3135C127.38 58.7904 127.017 59.3438 126.772 59.9364L128.621 60.7007L130.469 61.465C130.516 61.3497 130.587 61.24 130.686 61.1416L129.271 59.7275ZM128.621 62.9976L126.772 63.7619C127.017 64.3545 127.38 64.9079 127.857 65.3848L129.271 63.9707L130.686 62.5566C130.587 62.4582 130.516 62.3485 130.469 62.2332L128.621 62.9976ZM129.271 63.9707L127.857 65.385C128.334 65.8617 128.887 66.2246 129.48 66.4697L130.244 64.6216L131.009 62.7734C130.894 62.7258 130.784 62.6548 130.686 62.5564L129.271 63.9707ZM132.541 64.6215L133.305 66.4697C133.898 66.2246 134.451 65.8618 134.928 65.3852L133.514 63.9707L132.1 62.5562C132.001 62.6547 131.891 62.7257 131.776 62.7734L132.541 64.6215ZM133.514 63.9707L134.928 65.3849L137.579 62.7333L136.165 61.3191L134.751 59.9049L132.099 62.5565L133.514 63.9707ZM141.469 56.0159L142.883 57.4301L145.534 54.7785L144.12 53.3643L142.706 51.95L140.054 54.6017L141.469 56.0159ZM144.12 53.3643L145.534 54.7785C147.487 52.8259 147.487 49.6595 145.534 47.7069L144.12 49.1211L142.706 50.5353C143.096 50.9258 143.096 51.5595 142.706 51.95L144.12 53.3643ZM87.999 27L87.9986 25C85.2382 25.0006 82.999 27.2384 82.999 30H84.999H86.999C86.999 29.4483 87.4467 29.0001 87.9994 29L87.999 27ZM84.999 30H82.999V33.75H84.999H86.999V30H84.999ZM84.999 41.25H82.999V45H84.999H86.999V41.25H84.999ZM84.999 45H82.999C82.999 45.6744 83.1337 46.3223 83.3794 46.9146L85.2267 46.1483L87.0741 45.382C87.0264 45.2669 86.999 45.1391 86.999 45H84.999ZM86.8507 47.7722L86.0844 49.6195C86.6767 49.8652 87.3244 49.9999 87.9986 50L87.999 48L87.9994 46C87.8602 46 87.7323 45.9726 87.6171 45.9248L86.8507 47.7722ZM87.999 48V50C88.6733 50 89.3212 49.8654 89.9135 49.6198L89.1474 47.7724L88.3813 45.9249C88.2661 45.9726 88.1383 46 87.999 46V48ZM90.7714 46.1484L92.6188 46.9145C92.8645 46.3222 92.999 45.6743 92.999 45H90.999H88.999C88.999 45.1393 88.9717 45.2671 88.9239 45.3823L90.7714 46.1484ZM90.999 45H92.999V41.25H90.999H88.999V45H90.999ZM90.999 33.75H92.999V30H90.999H88.999V33.75H90.999ZM90.999 30H92.999C92.999 27.2386 90.7604 25 87.999 25V27V29C88.5513 29 88.999 29.4477 88.999 30H90.999Z" fill="black"/>
</svg>
