<svg width="183" height="133" viewBox="0 0 183 133" fill="none" xmlns="http://www.w3.org/2000/svg">
<path d="M87.377 2.61719C89.2017 -0.872082 94.0932 -0.872081 95.918 2.61719C99.9078 10.2467 105.983 22.2704 110.995 33.9156C111.363 34.77 111.086 35.7629 110.337 36.3138C103.942 41.0155 97.8161 45.8837 93.1448 50.3349C92.3443 51.0976 91.0796 51.0976 90.2791 50.3349C85.5837 45.8607 79.4189 40.9649 72.9884 36.2407C72.2384 35.6898 71.9615 34.6963 72.3296 33.8416C77.3356 22.2193 83.3955 10.2307 87.377 2.61719Z" fill="black"/>
<path d="M2.02767 58.4801C0.980423 55.1521 3.67195 52.0065 7.12249 52.5227C21.7015 54.7036 54.7598 61.0372 68.9064 75.1214C83.0251 89.1777 88.126 114.953 89.7384 126.225C90.1602 129.173 87.8126 131.64 84.847 131.366C73.7645 130.345 48.6 126.691 32.7477 114.009C16.9441 101.366 6.25403 71.9111 2.02767 58.4801Z" fill="black"/>
<path d="M180.472 58.8219C181.52 55.4939 178.828 52.3483 175.378 52.8645C160.799 55.0454 127.74 61.379 113.594 75.4632C99.4749 89.5195 94.374 115.294 92.7616 126.567C92.3398 129.515 94.6874 131.982 97.653 131.708C108.735 130.687 133.9 127.033 149.752 114.351C165.556 101.708 176.246 72.2529 180.472 58.8219Z" fill="black"/>
<path d="M141.429 22.0352C144.754 19.9258 148.989 22.3717 148.825 26.3057C148.541 33.1171 148.01 42.9686 147.066 53.0258C147.027 53.4379 146.738 53.7829 146.339 53.8954C145.184 54.2219 144.023 54.5622 142.863 54.916C130.868 58.5753 118.053 63.9642 110.064 71.918C104.591 77.3674 100.448 84.2653 97.3061 91.3047C97.3058 91.3053 97.3058 91.306 97.3062 91.3066C97.3065 91.3073 97.3065 91.308 97.3062 91.3086C96.31 93.541 95.414 95.7877 94.6084 98.0068C94.3102 98.8287 94.024 99.6467 93.75 100.459C93.6323 100.808 93.5161 101.156 93.4023 101.504C92.6071 103.937 91.91 106.339 91.296 108.659C91.2957 108.66 91.2942 108.66 91.2939 108.659C91.2938 108.659 91.2937 108.658 91.2936 108.658C91.2934 108.657 91.2926 108.657 91.2925 108.658C91.2924 108.658 91.2915 108.658 91.2914 108.658C90.5695 105.902 89.7302 103.027 88.749 100.118C88.0908 98.167 87.3628 96.1821 86.5605 94.1924L86.5596 94.1904C83.282 86.0626 78.7427 77.8576 72.4346 71.5771C64.4455 63.6233 51.631 58.2345 39.6357 54.5752C38.9336 54.361 38.231 54.153 37.5295 53.9495C37.1348 53.835 36.8491 53.4916 36.8107 53.0824C35.8637 43.0056 35.333 33.1299 35.0479 26.3057C34.8837 22.3716 39.1195 19.9258 42.4443 22.0352C54.4833 29.6731 77.5028 44.884 88.2744 56.0576C89.2781 57.0988 90.1776 58.2967 90.9827 59.6252C91.4065 60.3244 92.4666 60.3245 92.8904 59.6252C93.6955 58.2967 94.595 57.0988 95.5986 56.0576C106.37 44.884 129.39 29.6732 141.429 22.0352ZM101.608 93.9394C101.608 93.9394 101.608 93.9395 101.608 93.9395C101.431 94.3453 101.256 94.7526 101.085 95.1602C101.13 95.0519 101.176 94.9431 101.222 94.835C101.349 94.536 101.478 94.2372 101.608 93.9393C101.608 93.9391 101.608 93.9392 101.608 93.9394ZM73.7891 80.8887C73.816 80.9261 73.8423 80.9645 73.8691 81.002C73.7582 80.8472 73.6456 80.6934 73.5332 80.54C73.6184 80.6561 73.7048 80.7718 73.7891 80.8887ZM72.6436 79.3604C72.6923 79.4229 72.7396 79.487 72.7881 79.5498C72.7071 79.4447 72.6257 79.3397 72.5439 79.2354C72.5767 79.2772 72.6109 79.3184 72.6436 79.3604ZM72.0527 78.6162C72.0958 78.6694 72.1378 78.7239 72.1807 78.7773C72.1063 78.6848 72.032 78.5919 71.957 78.5C71.9887 78.5388 72.0212 78.5773 72.0527 78.6162ZM112.489 76.6055C112.638 76.4456 112.787 76.2851 112.938 76.1279L113.036 76.0273C112.852 76.2181 112.67 76.4112 112.489 76.6055ZM122.146 69.0029C122.222 68.958 122.297 68.9119 122.373 68.8672C122.423 68.8377 122.474 68.8087 122.524 68.7793C122.398 68.8534 122.272 68.9283 122.146 69.0029Z" fill="black"/>
</svg>
