<svg width="99" height="100" viewBox="0 0 99 100" fill="none" xmlns="http://www.w3.org/2000/svg">
<path d="M77.3911 7.51667V65.0583C77.3911 78.3375 75.3785 87.325 71.3408 92.0167C67.5971 96.1542 62.3171 98.6833 55.4965 99.6042C53.546 99.8708 51.4712 100 49.2681 100C47.065 100 45.1393 99.8708 43.2592 99.6042C38.9275 99.0042 35.2501 97.7 32.2187 95.7083C31.1337 94.9958 29.734 95.0542 28.6904 95.825C26.0814 97.75 22.9506 99.0125 19.2153 99.6042C17.5671 99.8708 15.8029 100 13.9104 100C12.0137 100 10.1543 99.8708 8.43566 99.6042C7.51631 99.4667 6.60525 99.2833 5.70246 99.0542C2.36464 98.2125 0 95.2125 0 91.7458C0 87.5167 3.42893 84.2167 7.44177 84.2167C7.93458 84.2167 8.43981 84.2667 8.94918 84.375C9.63662 84.5167 10.2702 84.5875 10.8459 84.5875C18.0184 84.5875 21.6089 79.5 21.6089 69.3292V7.51667C21.6089 3.36667 24.9591 0 29.0838 0H30.1895C32.169 0 34.0698 0.791667 35.4737 2.2C36.8734 3.6125 37.6603 5.525 37.6603 7.51667V65.1833C37.8011 72.5833 38.5755 77.6208 39.9876 80.2375C41.6151 83.1375 44.808 84.5875 49.5745 84.5875C54.3369 84.5875 57.4843 83.3167 59.0041 80.7875C60.5736 78.2125 61.3605 72.9625 61.3605 65.0583V7.51667C61.3605 3.36667 64.7066 0 68.8354 0H69.9079C71.8916 0 73.7924 0.791667 75.1921 2.2C76.596 3.6125 77.3828 5.525 77.3787 7.51667H77.3911ZM99 90.325C99 93.0125 98.0558 95.3042 96.1674 97.2C94.1796 99.05 91.9019 99.9625 89.3344 99.9625C87.9761 99.9625 86.7006 99.7125 85.5286 99.2125C84.3732 98.7292 83.3172 98.0333 82.4186 97.1625C81.5282 96.2833 80.82 95.2375 80.3397 94.0833C79.8427 92.8917 79.5942 91.6125 79.5942 90.2458C79.5942 87.5542 80.5343 85.2667 82.4186 83.3667C84.3566 81.4708 86.713 80.5167 89.4918 80.5167C92.0552 80.5167 94.2831 81.4958 96.1674 83.4458C98.0558 85.3417 99 87.6417 99 90.325Z" fill="black"/>
</svg>
