<svg width="393" height="852" viewBox="0 0 393 852" fill="none" xmlns="http://www.w3.org/2000/svg">
<g clip-path="url(#clip0_2587_1437)">
<rect width="393" height="852" rx="30" fill="#171717"/>
<path d="M57.6904 23.063C58.3324 23.063 58.9411 23.182 59.5166 23.4199C60.0921 23.6523 60.6012 24.0176 61.0439 24.5156C61.4922 25.0081 61.8436 25.6418 62.0981 26.4165C62.3527 27.1857 62.48 28.1126 62.48 29.1973V29.2139C62.48 30.5586 62.2863 31.7096 61.8989 32.667C61.5116 33.6243 60.9554 34.3604 60.2305 34.875C59.5111 35.3841 58.6506 35.6387 57.6489 35.6387C56.9129 35.6387 56.2489 35.5059 55.6567 35.2402C55.0701 34.9691 54.5832 34.5983 54.1958 34.1279C53.814 33.652 53.5566 33.1097 53.4238 32.501L53.4072 32.4097H55.5073L55.5405 32.4927C55.6457 32.7694 55.7951 33.0129 55.9888 33.2231C56.188 33.4334 56.4259 33.5967 56.7026 33.7129C56.9849 33.8236 57.3003 33.8789 57.6489 33.8789C58.2798 33.8789 58.7944 33.6935 59.1929 33.3228C59.5968 32.9465 59.8984 32.4456 60.0977 31.8203C60.3024 31.1895 60.4186 30.4922 60.4463 29.7285C60.4518 29.6455 60.4546 29.5653 60.4546 29.4878C60.4546 29.4048 60.4546 29.3245 60.4546 29.2471L60.0811 27.2466C60.0811 26.7928 59.9759 26.3805 59.7656 26.0098C59.5553 25.639 59.2703 25.3457 58.9106 25.1299C58.5565 24.9141 58.1553 24.8062 57.707 24.8062C57.2754 24.8062 56.8797 24.9113 56.52 25.1216C56.1603 25.3319 55.8726 25.6196 55.6567 25.9849C55.4409 26.3446 55.333 26.7485 55.333 27.1968V27.2134C55.333 27.6782 55.4354 28.0905 55.6401 28.4502C55.8449 28.8044 56.1243 29.0838 56.4785 29.2886C56.8327 29.4933 57.2367 29.5957 57.6904 29.5957C58.1442 29.5957 58.5509 29.4961 58.9106 29.2969C59.2703 29.0977 59.5553 28.821 59.7656 28.4668C59.9759 28.1126 60.0811 27.7114 60.0811 27.2632V27.2466H60.5791V29.4546H60.2886C60.1447 29.77 59.9316 30.0633 59.6494 30.3345C59.3672 30.6056 59.0186 30.8242 58.6035 30.9902C58.194 31.1562 57.7126 31.2393 57.1592 31.2393C56.3955 31.2393 55.7204 31.0677 55.1338 30.7246C54.5472 30.3815 54.0851 29.9111 53.7476 29.3135C53.4155 28.7158 53.2495 28.0407 53.2495 27.2881V27.2715C53.2495 26.458 53.4377 25.7358 53.814 25.105C54.1958 24.4686 54.7215 23.9705 55.3911 23.6108C56.0662 23.2456 56.8327 23.063 57.6904 23.063ZM66.2485 33.7295C65.8722 33.7295 65.5568 33.605 65.3022 33.356C65.0532 33.1014 64.9287 32.7915 64.9287 32.4263C64.9287 32.0555 65.0532 31.7456 65.3022 31.4966C65.5568 31.242 65.8722 31.1147 66.2485 31.1147C66.6304 31.1147 66.9458 31.242 67.1948 31.4966C67.4438 31.7456 67.5684 32.0555 67.5684 32.4263C67.5684 32.7915 67.4438 33.1014 67.1948 33.356C66.9458 33.605 66.6304 33.7295 66.2485 33.7295ZM66.2485 27.5703C65.8722 27.5703 65.5568 27.4458 65.3022 27.1968C65.0532 26.9422 64.9287 26.6323 64.9287 26.2671C64.9287 25.8963 65.0532 25.5864 65.3022 25.3374C65.5568 25.0828 65.8722 24.9556 66.2485 24.9556C66.6304 24.9556 66.9458 25.0828 67.1948 25.3374C67.4438 25.5864 67.5684 25.8963 67.5684 26.2671C67.5684 26.6323 67.4438 26.9422 67.1948 27.1968C66.9458 27.4458 66.6304 27.5703 66.2485 27.5703ZM75.8276 35.3398V33.0405H69.9673V31.2891C70.2827 30.7523 70.5981 30.2127 70.9136 29.6704C71.2345 29.1281 71.5583 28.5885 71.8848 28.0518C72.2168 27.5094 72.5461 26.9754 72.8726 26.4497C73.2046 25.9185 73.5339 25.3955 73.8604 24.8809C74.1924 24.3607 74.5244 23.8543 74.8564 23.3618H77.8696V31.2725H79.4883V33.0405H77.8696V35.3398H75.8276ZM71.9595 31.3223H75.8608V25.0718H75.7363C75.4928 25.4481 75.241 25.8354 74.981 26.2339C74.7264 26.6323 74.4691 27.0391 74.209 27.4541C73.9489 27.8691 73.6916 28.2869 73.437 28.7075C73.1825 29.1226 72.9307 29.5404 72.6816 29.9609C72.4326 30.376 72.1919 30.7882 71.9595 31.1978V31.3223ZM84.4438 35.3398V25.4702H84.2944L81.3145 27.5703V25.5615L84.4438 23.3618H86.5771V35.3398H84.4438Z" fill="white"/>
<rect opacity="0.35" x="334" y="23.5" width="24" height="12" rx="3.8" stroke="white"/>
<path opacity="0.4" d="M359.5 27.7812V31.8567C360.305 31.5116 360.828 30.7086 360.828 29.819C360.828 28.9294 360.305 28.1264 359.5 27.7812Z" fill="white"/>
<rect x="335.5" y="25" width="21" height="9" rx="2.5" fill="white"/>
<path fill-rule="evenodd" clip-rule="evenodd" d="M317.771 26.104C320.258 26.1041 322.65 27.0262 324.452 28.6796C324.588 28.8073 324.805 28.8057 324.939 28.676L326.236 27.4126C326.304 27.3468 326.341 27.2577 326.341 27.165C326.34 27.0724 326.302 26.9837 326.233 26.9187C321.502 22.544 314.038 22.544 309.307 26.9187C309.239 26.9837 309.2 27.0723 309.199 27.165C309.199 27.2577 309.236 27.3468 309.304 27.4126L310.602 28.676C310.735 28.8059 310.952 28.8075 311.088 28.6796C312.891 27.0261 315.283 26.104 317.771 26.104ZM317.767 30.3243C319.124 30.3242 320.433 30.8359 321.439 31.76C321.576 31.8912 321.79 31.8883 321.923 31.7536L323.21 30.4343C323.278 30.3651 323.315 30.2712 323.314 30.1737C323.313 30.0761 323.274 29.9831 323.205 29.9153C320.141 27.0244 315.396 27.0244 312.332 29.9153C312.263 29.9831 312.224 30.0762 312.223 30.1738C312.222 30.2714 312.26 30.3652 312.327 30.4343L313.614 31.7536C313.747 31.8883 313.961 31.8912 314.097 31.76C315.103 30.8365 316.411 30.3248 317.767 30.3243ZM320.292 33.1178C320.294 33.2232 320.256 33.3247 320.189 33.3985L318.012 35.8533C317.949 35.9254 317.862 35.966 317.771 35.966C317.68 35.966 317.593 35.9254 317.529 35.8533L315.352 33.3985C315.285 33.3247 315.248 33.2231 315.25 33.1177C315.252 33.0124 315.293 32.9126 315.363 32.842C316.753 31.5281 318.789 31.5281 320.179 32.842C320.249 32.9127 320.29 33.0125 320.292 33.1178Z" fill="white"/>
<path fill-rule="evenodd" clip-rule="evenodd" d="M301.7 24.6824C301.7 24.0493 301.222 23.5361 300.633 23.5361H299.567C298.978 23.5361 298.5 24.0493 298.5 24.6824V34.6163C298.5 35.2494 298.978 35.7625 299.567 35.7625H300.633C301.222 35.7625 301.7 35.2494 301.7 34.6163V24.6824ZM294.266 25.9814H295.333C295.922 25.9814 296.399 26.5069 296.399 27.1552V34.5888C296.399 35.237 295.922 35.7625 295.333 35.7625H294.266C293.677 35.7625 293.199 35.237 293.199 34.5888V27.1552C293.199 26.5069 293.677 25.9814 294.266 25.9814ZM289.934 28.6305H288.867C288.278 28.6305 287.801 29.1627 287.801 29.8191V34.5739C287.801 35.2303 288.278 35.7625 288.867 35.7625H289.934C290.523 35.7625 291.001 35.2303 291.001 34.5739V29.8191C291.001 29.1627 290.523 28.6305 289.934 28.6305ZM284.633 31.0758H283.567C282.978 31.0758 282.5 31.6003 282.5 32.2475V34.5909C282.5 35.238 282.978 35.7625 283.567 35.7625H284.633C285.222 35.7625 285.7 35.238 285.7 34.5909V32.2475C285.7 31.6003 285.222 31.0758 284.633 31.0758Z" fill="white"/>
<rect width="139" height="5" rx="2.5" transform="matrix(-1 0 0 1 266 839)" fill="white"/>
<rect width="393" height="56" transform="translate(0 54)" fill="#171717"/>
<path d="M129.18 78.7207C129.04 77.3779 127.912 76.6045 126.236 76.6152C124.464 76.6045 123.411 77.4639 123.4 78.6348C123.39 79.9453 124.775 80.4824 126.064 80.7832L127.525 81.1699C129.846 81.707 132.08 82.9316 132.08 85.6387C132.08 88.3672 129.921 90.2363 126.193 90.2363C122.573 90.2363 120.274 88.4961 120.156 85.4238H122.906C123.035 87.0459 124.399 87.8408 126.172 87.8516C128.009 87.8408 129.276 86.9492 129.287 85.6172C129.276 84.3926 128.159 83.877 126.473 83.4473L124.711 82.9961C122.154 82.3301 120.564 81.041 120.564 78.8066C120.564 76.0566 123.003 74.2305 126.279 74.2305C129.577 74.2305 131.822 76.0889 131.865 78.7207H129.18ZM137.021 83.168V90H134.271V74.4453H136.957V80.3105H137.107C137.634 78.9893 138.772 78.1836 140.566 78.1836C142.983 78.1836 144.584 79.752 144.584 82.5664V90H141.855V82.9961C141.845 81.4062 140.996 80.4932 139.557 80.5039C138.074 80.4932 137.021 81.4707 137.021 83.168ZM146.646 86.7129C146.646 84.0918 148.827 83.3291 150.986 83.1895C151.803 83.125 153.468 83.0498 153.983 83.0283L153.973 82.0938C153.973 80.9336 153.231 80.2676 151.867 80.2676C150.643 80.2676 149.891 80.8262 149.676 81.6641H147.033C147.227 79.6768 149.01 78.1836 151.932 78.1836C154.145 78.1836 156.701 79.0967 156.701 82.2012V90H154.08V88.3887H153.994C153.479 89.377 152.394 90.2363 150.557 90.2363C148.333 90.2363 146.646 89.0225 146.646 86.7129ZM149.289 86.6914C149.289 87.7012 150.116 88.2168 151.266 88.2168C152.931 88.2168 153.994 87.1211 153.994 85.8105L153.983 84.8545C153.489 84.876 151.964 84.9727 151.416 85.0156C150.116 85.123 149.289 85.6709 149.289 86.6914ZM159.279 90V78.334H161.943V80.2676H162.072C162.491 78.9248 163.608 78.1621 164.951 78.1621C165.252 78.1621 165.682 78.1943 165.939 78.2266V80.7617C165.692 80.6758 165.123 80.6006 164.672 80.5898C163.146 80.6006 162.029 81.6533 162.029 83.125V90H159.279ZM172.363 90.2363C168.851 90.2363 166.691 87.8945 166.691 84.2422C166.691 80.6328 168.883 78.1836 172.213 78.1836C175.07 78.1836 177.541 79.9775 177.541 84.0703V84.9297H169.398C169.441 86.917 170.612 88.0986 172.385 88.0879C173.588 88.0986 174.394 87.583 174.748 86.8848H177.434C176.939 88.9043 175.07 90.2363 172.363 90.2363ZM169.409 83.0605H174.92C174.909 81.4707 173.835 80.3105 172.256 80.3105C170.612 80.3105 169.506 81.5781 169.409 83.0605ZM185.018 90V74.4453H190.861C194.428 74.4453 196.329 76.6152 196.34 79.6016C196.329 82.5771 194.406 84.7363 190.818 84.7363H187.811V90H185.018ZM187.811 82.4375H190.432C192.537 82.4268 193.482 81.2451 193.482 79.6016C193.482 77.9365 192.537 76.7871 190.432 76.7871H187.811V82.4375ZM198.467 90V78.334H201.131V80.2676H201.26C201.679 78.9248 202.796 78.1621 204.139 78.1621C204.439 78.1621 204.869 78.1943 205.127 78.2266V80.7617C204.88 80.6758 204.311 80.6006 203.859 80.5898C202.334 80.6006 201.217 81.6533 201.217 83.125V90H198.467ZM211.465 90.2363C208.06 90.2363 205.879 87.8193 205.879 84.2207C205.879 80.5898 208.06 78.1836 211.465 78.1836C214.881 78.1836 217.062 80.5898 217.051 84.2207C217.062 87.8193 214.881 90.2363 211.465 90.2363ZM208.65 84.1992C208.65 86.3369 209.585 88.0449 211.486 88.0449C213.355 88.0449 214.29 86.3369 214.279 84.1992C214.29 82.0615 213.355 80.3428 211.486 80.3535C209.585 80.3428 208.65 82.0615 208.65 84.1992ZM224.27 94.6191C221.176 94.6191 219.21 93.2441 219.027 91.0527H221.756C221.949 92.0732 222.905 92.5459 224.312 92.5566C225.956 92.5459 227.02 91.8369 227.02 90.1289V87.8945H226.891C226.461 88.7539 225.526 89.8281 223.518 89.8281C220.821 89.8281 218.705 87.873 218.705 84.0703C218.705 80.2354 220.832 78.1836 223.539 78.1836C225.591 78.1836 226.461 79.4189 226.891 80.2461H227.02V78.334H229.727V90.1934C229.727 93.1797 227.417 94.6191 224.27 94.6191ZM221.498 84.1133C221.498 86.2617 222.465 87.6797 224.27 87.6797C226.042 87.6797 227.041 86.3477 227.041 84.1133C227.041 81.8896 226.053 80.4287 224.27 80.418C222.443 80.4287 221.498 81.9863 221.498 84.1133ZM232.348 90V78.334H235.012V80.2676H235.141C235.56 78.9248 236.677 78.1621 238.02 78.1621C238.32 78.1621 238.75 78.1943 239.008 78.2266V80.7617C238.761 80.6758 238.191 80.6006 237.74 80.5898C236.215 80.6006 235.098 81.6533 235.098 83.125V90H232.348ZM245.432 90.2363C241.919 90.2363 239.76 87.8945 239.76 84.2422C239.76 80.6328 241.951 78.1836 245.281 78.1836C248.139 78.1836 250.609 79.9775 250.609 84.0703V84.9297H242.467C242.51 86.917 243.681 88.0986 245.453 88.0879C246.656 88.0986 247.462 87.583 247.816 86.8848H250.502C250.008 88.9043 248.139 90.2363 245.432 90.2363ZM242.478 83.0605H247.988C247.978 81.4707 246.903 80.3105 245.324 80.3105C243.681 80.3105 242.574 81.5781 242.478 83.0605ZM259.354 81.6641C259.182 80.7832 258.451 80.2139 257.291 80.2246C256.12 80.2139 255.261 80.8047 255.271 81.5996C255.261 82.2012 255.744 82.6523 256.926 82.9316L258.902 83.3398C261.104 83.8232 262.179 84.8438 262.189 86.5195C262.179 88.7109 260.256 90.2363 257.205 90.2363C254.24 90.2363 252.489 88.9043 252.199 86.6699H254.992C255.153 87.6689 255.927 88.1631 257.205 88.1523C258.526 88.1631 259.386 87.626 259.396 86.7559C259.386 86.0791 258.859 85.6494 257.699 85.4023L255.83 84.9941C253.66 84.5537 252.532 83.415 252.543 81.75C252.532 79.5908 254.401 78.1836 257.248 78.1836C260.03 78.1836 261.749 79.5479 261.953 81.6641H259.354ZM270.891 81.6641C270.719 80.7832 269.988 80.2139 268.828 80.2246C267.657 80.2139 266.798 80.8047 266.809 81.5996C266.798 82.2012 267.281 82.6523 268.463 82.9316L270.439 83.3398C272.642 83.8232 273.716 84.8438 273.727 86.5195C273.716 88.7109 271.793 90.2363 268.742 90.2363C265.777 90.2363 264.026 88.9043 263.736 86.6699H266.529C266.69 87.6689 267.464 88.1631 268.742 88.1523C270.063 88.1631 270.923 87.626 270.934 86.7559C270.923 86.0791 270.396 85.6494 269.236 85.4023L267.367 84.9941C265.197 84.5537 264.069 83.415 264.08 81.75C264.069 79.5908 265.938 78.1836 268.785 78.1836C271.567 78.1836 273.286 79.5479 273.49 81.6641H270.891Z" fill="white"/>
<path d="M339.803 84.0703C339.803 80.0312 341.006 76.6582 343.025 73.7793H345.604C344.121 75.917 342.639 80.2246 342.639 84.0703C342.639 87.916 344.121 92.2344 345.604 94.3828H343.025C341.006 91.4824 339.803 88.1201 339.803 84.0703ZM350.008 74.4453L353.424 80.1602H353.553L357.012 74.4453H360.191L355.4 82.2227L360.277 90H357.033L353.553 84.3281H353.424L349.943 90H346.721L351.641 82.2227L346.785 74.4453H350.008ZM367.195 84.0703C367.195 88.1201 365.992 91.4824 363.973 94.3828H361.395C362.877 92.2344 364.359 87.916 364.359 84.0703C364.359 80.2246 362.877 75.917 361.395 73.7793H363.973C365.992 76.6582 367.195 80.0312 367.195 84.0703Z" fill="white"/>
<rect x="16" y="711" width="145" height="35" rx="17.5" fill="#F75053"/>
<path d="M39.2578 725.797C39.1562 724.82 38.3359 724.258 37.1172 724.266C35.8281 724.258 35.0625 724.883 35.0547 725.734C35.0469 726.688 36.0547 727.078 36.9922 727.297L38.0547 727.578C39.7422 727.969 41.3672 728.859 41.3672 730.828C41.3672 732.812 39.7969 734.172 37.0859 734.172C34.4531 734.172 32.7812 732.906 32.6953 730.672H34.6953C34.7891 731.852 35.7812 732.43 37.0703 732.438C38.4062 732.43 39.3281 731.781 39.3359 730.812C39.3281 729.922 38.5156 729.547 37.2891 729.234L36.0078 728.906C34.1484 728.422 32.9922 727.484 32.9922 725.859C32.9922 723.859 34.7656 722.531 37.1484 722.531C39.5469 722.531 41.1797 723.883 41.2109 725.797H39.2578ZM44.9609 729.031V734H42.9609V722.688H44.9141V726.953H45.0234C45.4062 725.992 46.2344 725.406 47.5391 725.406C49.2969 725.406 50.4609 726.547 50.4609 728.594V734H48.4766V728.906C48.4688 727.75 47.8516 727.086 46.8047 727.094C45.7266 727.086 44.9609 727.797 44.9609 729.031ZM51.9609 731.609C51.9609 729.703 53.5469 729.148 55.1172 729.047C55.7109 729 56.9219 728.945 57.2969 728.93L57.2891 728.25C57.2891 727.406 56.75 726.922 55.7578 726.922C54.8672 726.922 54.3203 727.328 54.1641 727.938H52.2422C52.3828 726.492 53.6797 725.406 55.8047 725.406C57.4141 725.406 59.2734 726.07 59.2734 728.328V734H57.3672V732.828H57.3047C56.9297 733.547 56.1406 734.172 54.8047 734.172C53.1875 734.172 51.9609 733.289 51.9609 731.609ZM53.8828 731.594C53.8828 732.328 54.4844 732.703 55.3203 732.703C56.5312 732.703 57.3047 731.906 57.3047 730.953L57.2969 730.258C56.9375 730.273 55.8281 730.344 55.4297 730.375C54.4844 730.453 53.8828 730.852 53.8828 731.594ZM61.1484 734V725.516H63.0859V726.922H63.1797C63.4844 725.945 64.2969 725.391 65.2734 725.391C65.4922 725.391 65.8047 725.414 65.9922 725.438V727.281C65.8125 727.219 65.3984 727.164 65.0703 727.156C63.9609 727.164 63.1484 727.93 63.1484 729V734H61.1484ZM70.6641 734.172C68.1094 734.172 66.5391 732.469 66.5391 729.812C66.5391 727.188 68.1328 725.406 70.5547 725.406C72.6328 725.406 74.4297 726.711 74.4297 729.688V730.312H68.5078C68.5391 731.758 69.3906 732.617 70.6797 732.609C71.5547 732.617 72.1406 732.242 72.3984 731.734H74.3516C73.9922 733.203 72.6328 734.172 70.6641 734.172ZM68.5156 728.953H72.5234C72.5156 727.797 71.7344 726.953 70.5859 726.953C69.3906 726.953 68.5859 727.875 68.5156 728.953ZM79.8672 734V722.688H84.1172C86.7109 722.688 88.0938 724.266 88.1016 726.438C88.0938 728.602 86.6953 730.172 84.0859 730.172H81.8984V734H79.8672ZM81.8984 728.5H83.8047C85.3359 728.492 86.0234 727.633 86.0234 726.438C86.0234 725.227 85.3359 724.391 83.8047 724.391H81.8984V728.5ZM89.6484 734V725.516H91.5859V726.922H91.6797C91.9844 725.945 92.7969 725.391 93.7734 725.391C93.9922 725.391 94.3047 725.414 94.4922 725.438V727.281C94.3125 727.219 93.8984 727.164 93.5703 727.156C92.4609 727.164 91.6484 727.93 91.6484 729V734H89.6484ZM99.1016 734.172C96.625 734.172 95.0391 732.414 95.0391 729.797C95.0391 727.156 96.625 725.406 99.1016 725.406C101.586 725.406 103.172 727.156 103.164 729.797C103.172 732.414 101.586 734.172 99.1016 734.172ZM97.0547 729.781C97.0547 731.336 97.7344 732.578 99.1172 732.578C100.477 732.578 101.156 731.336 101.148 729.781C101.156 728.227 100.477 726.977 99.1172 726.984C97.7344 726.977 97.0547 728.227 97.0547 729.781ZM108.414 737.359C106.164 737.359 104.734 736.359 104.602 734.766H106.586C106.727 735.508 107.422 735.852 108.445 735.859C109.641 735.852 110.414 735.336 110.414 734.094V732.469H110.32C110.008 733.094 109.328 733.875 107.867 733.875C105.906 733.875 104.367 732.453 104.367 729.688C104.367 726.898 105.914 725.406 107.883 725.406C109.375 725.406 110.008 726.305 110.32 726.906H110.414V725.516H112.383V734.141C112.383 736.312 110.703 737.359 108.414 737.359ZM106.398 729.719C106.398 731.281 107.102 732.312 108.414 732.312C109.703 732.312 110.43 731.344 110.43 729.719C110.43 728.102 109.711 727.039 108.414 727.031C107.086 727.039 106.398 728.172 106.398 729.719ZM114.289 734V725.516H116.227V726.922H116.32C116.625 725.945 117.438 725.391 118.414 725.391C118.633 725.391 118.945 725.414 119.133 725.438V727.281C118.953 727.219 118.539 727.164 118.211 727.156C117.102 727.164 116.289 727.93 116.289 729V734H114.289ZM123.805 734.172C121.25 734.172 119.68 732.469 119.68 729.812C119.68 727.188 121.273 725.406 123.695 725.406C125.773 725.406 127.57 726.711 127.57 729.688V730.312H121.648C121.68 731.758 122.531 732.617 123.82 732.609C124.695 732.617 125.281 732.242 125.539 731.734H127.492C127.133 733.203 125.773 734.172 123.805 734.172ZM121.656 728.953H125.664C125.656 727.797 124.875 726.953 123.727 726.953C122.531 726.953 121.727 727.875 121.656 728.953ZM133.93 727.938C133.805 727.297 133.273 726.883 132.43 726.891C131.578 726.883 130.953 727.312 130.961 727.891C130.953 728.328 131.305 728.656 132.164 728.859L133.602 729.156C135.203 729.508 135.984 730.25 135.992 731.469C135.984 733.062 134.586 734.172 132.367 734.172C130.211 734.172 128.938 733.203 128.727 731.578H130.758C130.875 732.305 131.438 732.664 132.367 732.656C133.328 732.664 133.953 732.273 133.961 731.641C133.953 731.148 133.57 730.836 132.727 730.656L131.367 730.359C129.789 730.039 128.969 729.211 128.977 728C128.969 726.43 130.328 725.406 132.398 725.406C134.422 725.406 135.672 726.398 135.82 727.938H133.93ZM142.32 727.938C142.195 727.297 141.664 726.883 140.82 726.891C139.969 726.883 139.344 727.312 139.352 727.891C139.344 728.328 139.695 728.656 140.555 728.859L141.992 729.156C143.594 729.508 144.375 730.25 144.383 731.469C144.375 733.062 142.977 734.172 140.758 734.172C138.602 734.172 137.328 733.203 137.117 731.578H139.148C139.266 732.305 139.828 732.664 140.758 732.656C141.719 732.664 142.344 732.273 142.352 731.641C142.344 731.148 141.961 730.836 141.117 730.656L139.758 730.359C138.18 730.039 137.359 729.211 137.367 728C137.359 726.43 138.719 725.406 140.789 725.406C142.812 725.406 144.062 726.398 144.211 727.938H142.32Z" fill="white"/>
<rect x="169" y="711" width="120" height="35" rx="17.5" fill="#B5B5B5"/>
<path d="M186.336 734V722.688H193.695V724.391H188.367V727.484H193.305V729.188H188.367V732.281H193.727V734H186.336ZM197.555 729.031V734H195.555V725.516H197.461V726.953H197.57C197.953 726.008 198.82 725.406 200.086 725.406C201.844 725.406 203 726.562 202.992 728.594V734H201.008V728.906C201.008 727.766 200.391 727.086 199.352 727.094C198.297 727.086 197.555 727.797 197.555 729.031ZM208.055 734.156C206.062 734.148 204.555 732.555 204.555 729.766C204.555 726.938 206.102 725.406 208.07 725.406C209.562 725.406 210.188 726.305 210.492 726.906H210.57V722.688H212.555V734H210.602V732.656H210.492C210.172 733.281 209.523 734.148 208.055 734.156ZM206.586 729.75C206.586 731.352 207.289 732.516 208.602 732.516C209.891 732.516 210.617 731.406 210.617 729.75C210.617 728.102 209.898 727.039 208.602 727.031C207.273 727.039 206.586 728.172 206.586 729.75ZM218.461 734V722.688H222.711C225.305 722.688 226.688 724.141 226.695 726.297C226.688 727.836 225.984 728.977 224.656 729.516L227.102 734H224.836L222.617 729.859H220.492V734H218.461ZM220.492 728.156H222.398C223.93 728.164 224.617 727.508 224.617 726.297C224.617 725.094 223.93 724.391 222.398 724.391H220.492V728.156ZM231.93 734.172C229.453 734.172 227.867 732.414 227.867 729.797C227.867 727.156 229.453 725.406 231.93 725.406C234.414 725.406 236 727.156 235.992 729.797C236 732.414 234.414 734.172 231.93 734.172ZM229.883 729.781C229.883 731.336 230.562 732.578 231.945 732.578C233.305 732.578 233.984 731.336 233.977 729.781C233.984 728.227 233.305 726.977 231.945 726.984C230.562 726.977 229.883 728.227 229.883 729.781ZM241.242 734.172C238.766 734.172 237.18 732.414 237.18 729.797C237.18 727.156 238.766 725.406 241.242 725.406C243.727 725.406 245.312 727.156 245.305 729.797C245.312 732.414 243.727 734.172 241.242 734.172ZM239.195 729.781C239.195 731.336 239.875 732.578 241.258 732.578C242.617 732.578 243.297 731.336 243.289 729.781C243.297 728.227 242.617 726.977 241.258 726.984C239.875 726.977 239.195 728.227 239.195 729.781ZM246.852 734V725.516H248.758V726.953H248.867C249.219 725.984 250.07 725.406 251.195 725.406C252.344 725.406 253.172 725.992 253.492 726.953H253.586C253.953 726.016 254.898 725.406 256.133 725.406C257.688 725.406 258.781 726.406 258.773 728.297V734H256.789V728.609C256.789 727.555 256.148 727.078 255.336 727.078C254.359 727.078 253.789 727.742 253.789 728.703V734H251.852V728.531C251.844 727.648 251.266 727.078 250.414 727.078C249.555 727.078 248.852 727.789 248.852 728.844V734H246.852ZM260.68 734V725.516H262.68V734H260.68ZM260.539 723.219C260.539 722.625 261.062 722.141 261.695 722.141C262.328 722.141 262.852 722.625 262.852 723.219C262.852 723.82 262.328 724.305 261.695 724.312C261.062 724.305 260.539 723.82 260.539 723.219ZM268.352 734.172C265.797 734.172 264.227 732.469 264.227 729.812C264.227 727.188 265.82 725.406 268.242 725.406C270.32 725.406 272.117 726.711 272.117 729.688V730.312H266.195C266.227 731.758 267.078 732.617 268.367 732.609C269.242 732.617 269.828 732.242 270.086 731.734H272.039C271.68 733.203 270.32 734.172 268.352 734.172ZM266.203 728.953H270.211C270.203 727.797 269.422 726.953 268.273 726.953C267.078 726.953 266.273 727.875 266.203 728.953Z" fill="white"/>
<rect x="16" y="758" width="361" height="44" rx="10" fill="#F6F5FA"/>
</g>
<defs>
<clipPath id="clip0_2587_1437">
<rect width="393" height="852" rx="30" fill="white"/>
</clipPath>
</defs>
</svg>
