<svg width="393" height="852" viewBox="0 0 393 852" fill="none" xmlns="http://www.w3.org/2000/svg">
<g clip-path="url(#clip0_2350_1556)">
<rect width="393" height="852" rx="30" fill="url(#paint0_linear_2350_1556)"/>
<rect width="393" height="852" rx="30" fill="white"/>
<path d="M57.6904 23.063C58.3324 23.063 58.9411 23.182 59.5166 23.4199C60.0921 23.6523 60.6012 24.0176 61.0439 24.5156C61.4922 25.0081 61.8436 25.6418 62.0981 26.4165C62.3527 27.1857 62.48 28.1126 62.48 29.1973V29.2139C62.48 30.5586 62.2863 31.7096 61.8989 32.667C61.5116 33.6243 60.9554 34.3604 60.2305 34.875C59.5111 35.3841 58.6506 35.6387 57.6489 35.6387C56.9129 35.6387 56.2489 35.5059 55.6567 35.2402C55.0701 34.9691 54.5832 34.5983 54.1958 34.1279C53.814 33.652 53.5566 33.1097 53.4238 32.501L53.4072 32.4097H55.5073L55.5405 32.4927C55.6457 32.7694 55.7951 33.0129 55.9888 33.2231C56.188 33.4334 56.4259 33.5967 56.7026 33.7129C56.9849 33.8236 57.3003 33.8789 57.6489 33.8789C58.2798 33.8789 58.7944 33.6935 59.1929 33.3228C59.5968 32.9465 59.8984 32.4456 60.0977 31.8203C60.3024 31.1895 60.4186 30.4922 60.4463 29.7285C60.4518 29.6455 60.4546 29.5653 60.4546 29.4878C60.4546 29.4048 60.4546 29.3245 60.4546 29.2471L60.0811 27.2466C60.0811 26.7928 59.9759 26.3805 59.7656 26.0098C59.5553 25.639 59.2703 25.3457 58.9106 25.1299C58.5565 24.9141 58.1553 24.8062 57.707 24.8062C57.2754 24.8062 56.8797 24.9113 56.52 25.1216C56.1603 25.3319 55.8726 25.6196 55.6567 25.9849C55.4409 26.3446 55.333 26.7485 55.333 27.1968V27.2134C55.333 27.6782 55.4354 28.0905 55.6401 28.4502C55.8449 28.8044 56.1243 29.0838 56.4785 29.2886C56.8327 29.4933 57.2367 29.5957 57.6904 29.5957C58.1442 29.5957 58.5509 29.4961 58.9106 29.2969C59.2703 29.0977 59.5553 28.821 59.7656 28.4668C59.9759 28.1126 60.0811 27.7114 60.0811 27.2632V27.2466H60.5791V29.4546H60.2886C60.1447 29.77 59.9316 30.0633 59.6494 30.3345C59.3672 30.6056 59.0186 30.8242 58.6035 30.9902C58.194 31.1562 57.7126 31.2393 57.1592 31.2393C56.3955 31.2393 55.7204 31.0677 55.1338 30.7246C54.5472 30.3815 54.0851 29.9111 53.7476 29.3135C53.4155 28.7158 53.2495 28.0407 53.2495 27.2881V27.2715C53.2495 26.458 53.4377 25.7358 53.814 25.105C54.1958 24.4686 54.7215 23.9705 55.3911 23.6108C56.0662 23.2456 56.8327 23.063 57.6904 23.063ZM66.2485 33.7295C65.8722 33.7295 65.5568 33.605 65.3022 33.356C65.0532 33.1014 64.9287 32.7915 64.9287 32.4263C64.9287 32.0555 65.0532 31.7456 65.3022 31.4966C65.5568 31.242 65.8722 31.1147 66.2485 31.1147C66.6304 31.1147 66.9458 31.242 67.1948 31.4966C67.4438 31.7456 67.5684 32.0555 67.5684 32.4263C67.5684 32.7915 67.4438 33.1014 67.1948 33.356C66.9458 33.605 66.6304 33.7295 66.2485 33.7295ZM66.2485 27.5703C65.8722 27.5703 65.5568 27.4458 65.3022 27.1968C65.0532 26.9422 64.9287 26.6323 64.9287 26.2671C64.9287 25.8963 65.0532 25.5864 65.3022 25.3374C65.5568 25.0828 65.8722 24.9556 66.2485 24.9556C66.6304 24.9556 66.9458 25.0828 67.1948 25.3374C67.4438 25.5864 67.5684 25.8963 67.5684 26.2671C67.5684 26.6323 67.4438 26.9422 67.1948 27.1968C66.9458 27.4458 66.6304 27.5703 66.2485 27.5703ZM75.8276 35.3398V33.0405H69.9673V31.2891C70.2827 30.7523 70.5981 30.2127 70.9136 29.6704C71.2345 29.1281 71.5583 28.5885 71.8848 28.0518C72.2168 27.5094 72.5461 26.9754 72.8726 26.4497C73.2046 25.9185 73.5339 25.3955 73.8604 24.8809C74.1924 24.3607 74.5244 23.8543 74.8564 23.3618H77.8696V31.2725H79.4883V33.0405H77.8696V35.3398H75.8276ZM71.9595 31.3223H75.8608V25.0718H75.7363C75.4928 25.4481 75.241 25.8354 74.981 26.2339C74.7264 26.6323 74.4691 27.0391 74.209 27.4541C73.9489 27.8691 73.6916 28.2869 73.437 28.7075C73.1825 29.1226 72.9307 29.5404 72.6816 29.9609C72.4326 30.376 72.1919 30.7882 71.9595 31.1978V31.3223ZM84.4438 35.3398V25.4702H84.2944L81.3145 27.5703V25.5615L84.4438 23.3618H86.5771V35.3398H84.4438Z" fill="#171717"/>
<rect opacity="0.35" x="334" y="23.5" width="24" height="12" rx="3.8" stroke="#171717"/>
<path opacity="0.4" d="M359.5 27.7812V31.8567C360.305 31.5116 360.828 30.7086 360.828 29.819C360.828 28.9294 360.305 28.1264 359.5 27.7812Z" fill="#171717"/>
<rect x="335.5" y="25" width="21" height="9" rx="2.5" fill="#171717"/>
<path fill-rule="evenodd" clip-rule="evenodd" d="M317.771 26.104C320.258 26.1041 322.65 27.0262 324.452 28.6796C324.588 28.8073 324.805 28.8057 324.939 28.676L326.236 27.4126C326.304 27.3468 326.341 27.2577 326.341 27.165C326.34 27.0724 326.302 26.9837 326.233 26.9187C321.502 22.544 314.038 22.544 309.307 26.9187C309.239 26.9837 309.2 27.0723 309.199 27.165C309.199 27.2577 309.236 27.3468 309.304 27.4126L310.602 28.676C310.735 28.8059 310.952 28.8075 311.088 28.6796C312.891 27.0261 315.283 26.104 317.771 26.104ZM317.767 30.3243C319.124 30.3242 320.433 30.8359 321.439 31.76C321.576 31.8912 321.79 31.8883 321.923 31.7536L323.21 30.4343C323.278 30.3651 323.315 30.2712 323.314 30.1737C323.313 30.0761 323.274 29.9831 323.205 29.9153C320.141 27.0244 315.396 27.0244 312.332 29.9153C312.263 29.9831 312.224 30.0762 312.223 30.1738C312.222 30.2714 312.26 30.3652 312.327 30.4343L313.614 31.7536C313.747 31.8883 313.961 31.8912 314.097 31.76C315.103 30.8365 316.411 30.3248 317.767 30.3243ZM320.292 33.1178C320.294 33.2232 320.256 33.3247 320.189 33.3985L318.012 35.8533C317.949 35.9254 317.862 35.966 317.771 35.966C317.68 35.966 317.593 35.9254 317.529 35.8533L315.352 33.3985C315.285 33.3247 315.248 33.2231 315.25 33.1177C315.252 33.0124 315.293 32.9126 315.363 32.842C316.753 31.5281 318.789 31.5281 320.179 32.842C320.249 32.9127 320.29 33.0125 320.292 33.1178Z" fill="#171717"/>
<path fill-rule="evenodd" clip-rule="evenodd" d="M301.7 24.6824C301.7 24.0493 301.222 23.5361 300.633 23.5361H299.567C298.978 23.5361 298.5 24.0493 298.5 24.6824V34.6163C298.5 35.2494 298.978 35.7625 299.567 35.7625H300.633C301.222 35.7625 301.7 35.2494 301.7 34.6163V24.6824ZM294.266 25.9814H295.333C295.922 25.9814 296.399 26.5069 296.399 27.1552V34.5888C296.399 35.237 295.922 35.7625 295.333 35.7625H294.266C293.677 35.7625 293.199 35.237 293.199 34.5888V27.1552C293.199 26.5069 293.677 25.9814 294.266 25.9814ZM289.934 28.6305H288.867C288.278 28.6305 287.801 29.1627 287.801 29.8191V34.5739C287.801 35.2303 288.278 35.7625 288.867 35.7625H289.934C290.523 35.7625 291.001 35.2303 291.001 34.5739V29.8191C291.001 29.1627 290.523 28.6305 289.934 28.6305ZM284.633 31.0758H283.567C282.978 31.0758 282.5 31.6003 282.5 32.2475V34.5909C282.5 35.238 282.978 35.7625 283.567 35.7625H284.633C285.222 35.7625 285.7 35.238 285.7 34.5909V32.2475C285.7 31.6003 285.222 31.0758 284.633 31.0758Z" fill="#171717"/>
<rect width="139" height="5" rx="2.5" transform="matrix(-1 0 0 1 266 839)" fill="white"/>
<path d="M154.758 133.75C154.395 131.711 152.766 130.539 150.703 130.539C147.926 130.539 145.957 132.672 145.969 136.516C145.957 140.418 147.938 142.492 150.703 142.492C152.719 142.492 154.348 141.367 154.758 139.375H157.828C157.359 142.633 154.676 145.234 150.656 145.234C146.18 145.234 142.887 141.988 142.898 136.516C142.887 131.031 146.215 127.797 150.656 127.797C154.406 127.797 157.301 129.977 157.828 133.75H154.758ZM165.867 145.258C162.152 145.258 159.773 142.621 159.773 138.695C159.773 134.734 162.152 132.109 165.867 132.109C169.594 132.109 171.973 134.734 171.961 138.695C171.973 142.621 169.594 145.258 165.867 145.258ZM162.797 138.672C162.797 141.004 163.816 142.867 165.891 142.867C167.93 142.867 168.949 141.004 168.938 138.672C168.949 136.34 167.93 134.465 165.891 134.477C163.816 134.465 162.797 136.34 162.797 138.672ZM177.281 137.547V145H174.281V132.273H177.141V134.43H177.305C177.879 133.012 179.18 132.109 181.078 132.109C183.715 132.109 185.449 133.844 185.438 136.891V145H182.461V137.359C182.461 135.648 181.535 134.629 179.977 134.641C178.395 134.629 177.281 135.695 177.281 137.547ZM193.852 150.039C190.477 150.039 188.332 148.539 188.133 146.148H191.109C191.32 147.262 192.363 147.777 193.898 147.789C195.691 147.777 196.852 147.004 196.852 145.141V142.703H196.711C196.242 143.641 195.223 144.812 193.031 144.812C190.09 144.812 187.781 142.68 187.781 138.531C187.781 134.348 190.102 132.109 193.055 132.109C195.293 132.109 196.242 133.457 196.711 134.359H196.852V132.273H199.805V145.211C199.805 148.469 197.285 150.039 193.852 150.039ZM190.828 138.578C190.828 140.922 191.883 142.469 193.852 142.469C195.785 142.469 196.875 141.016 196.875 138.578C196.875 136.152 195.797 134.559 193.852 134.547C191.859 134.559 190.828 136.258 190.828 138.578ZM202.664 145V132.273H205.57V134.383H205.711C206.168 132.918 207.387 132.086 208.852 132.086C209.18 132.086 209.648 132.121 209.93 132.156V134.922C209.66 134.828 209.039 134.746 208.547 134.734C206.883 134.746 205.664 135.895 205.664 137.5V145H202.664ZM210.891 141.414C210.891 138.555 213.27 137.723 215.625 137.57C216.516 137.5 218.332 137.418 218.895 137.395L218.883 136.375C218.883 135.109 218.074 134.383 216.586 134.383C215.25 134.383 214.43 134.992 214.195 135.906H211.312C211.523 133.738 213.469 132.109 216.656 132.109C219.07 132.109 221.859 133.105 221.859 136.492V145H219V143.242H218.906C218.344 144.32 217.16 145.258 215.156 145.258C212.73 145.258 210.891 143.934 210.891 141.414ZM213.773 141.391C213.773 142.492 214.676 143.055 215.93 143.055C217.746 143.055 218.906 141.859 218.906 140.43L218.895 139.387C218.355 139.41 216.691 139.516 216.094 139.562C214.676 139.68 213.773 140.277 213.773 141.391ZM231.023 132.273V134.57H228.516V141.18C228.516 142.398 229.125 142.645 229.875 142.656C230.227 142.668 230.812 142.633 231.188 142.609V145.047C230.836 145.105 230.262 145.176 229.5 145.164C227.25 145.176 225.516 144.062 225.539 141.672V134.57H223.711V132.273H225.539V129.227H228.516V132.273H231.023ZM240.352 135.906C240.164 134.945 239.367 134.324 238.102 134.336C236.824 134.324 235.887 134.969 235.898 135.836C235.887 136.492 236.414 136.984 237.703 137.289L239.859 137.734C242.262 138.262 243.434 139.375 243.445 141.203C243.434 143.594 241.336 145.258 238.008 145.258C234.773 145.258 232.863 143.805 232.547 141.367H235.594C235.77 142.457 236.613 142.996 238.008 142.984C239.449 142.996 240.387 142.41 240.398 141.461C240.387 140.723 239.812 140.254 238.547 139.984L236.508 139.539C234.141 139.059 232.91 137.816 232.922 136C232.91 133.645 234.949 132.109 238.055 132.109C241.09 132.109 242.965 133.598 243.188 135.906H240.352ZM249.352 128.031L249.094 140.008H246.445L246.164 128.031H249.352ZM245.953 143.359C245.941 142.375 246.773 141.566 247.781 141.555C248.754 141.566 249.586 142.375 249.586 143.359C249.586 144.367 248.754 145.188 247.781 145.188C246.773 145.188 245.941 144.367 245.953 143.359ZM80.4844 157.031V174H77.7656L69.7266 162.398H69.5859V174H66.5391V157.031H69.3047L77.2969 168.633H77.4609V157.031H80.4844ZM89.0391 174.258C85.3242 174.258 82.9453 171.621 82.9453 167.695C82.9453 163.734 85.3242 161.109 89.0391 161.109C92.7656 161.109 95.1445 163.734 95.1328 167.695C95.1445 171.621 92.7656 174.258 89.0391 174.258ZM85.9688 167.672C85.9688 170.004 86.9883 171.867 89.0625 171.867C91.1016 171.867 92.1211 170.004 92.1094 167.672C92.1211 165.34 91.1016 163.465 89.0625 163.477C86.9883 163.465 85.9688 165.34 85.9688 167.672ZM99.75 174L96.1406 161.273H99.1875L101.438 170.227H101.555L103.828 161.273H106.852L109.148 170.18H109.266L111.492 161.273H114.539L110.93 174H107.812L105.422 165.375H105.258L102.867 174H99.75ZM125.133 157.031V174H122.133V157.031H125.133ZM133.641 174.258C129.809 174.258 127.453 171.703 127.453 167.719C127.453 163.781 129.844 161.109 133.477 161.109C136.594 161.109 139.289 163.066 139.289 167.531V168.469H130.406C130.453 170.637 131.73 171.926 133.664 171.914C134.977 171.926 135.855 171.363 136.242 170.602H139.172C138.633 172.805 136.594 174.258 133.641 174.258ZM130.418 166.43H136.43C136.418 164.695 135.246 163.43 133.523 163.43C131.73 163.43 130.523 164.812 130.418 166.43ZM147.961 161.273V163.57H145.453V170.18C145.453 171.398 146.062 171.645 146.812 171.656C147.164 171.668 147.75 171.633 148.125 171.609V174.047C147.773 174.105 147.199 174.176 146.438 174.164C144.188 174.176 142.453 173.062 142.477 170.672V163.57H140.648V161.273H142.477V158.227H145.453V161.273H147.961ZM154.523 157.055L152.555 163.617H150.328L151.547 157.055H154.523ZM162.398 164.906C162.211 163.945 161.414 163.324 160.148 163.336C158.871 163.324 157.934 163.969 157.945 164.836C157.934 165.492 158.461 165.984 159.75 166.289L161.906 166.734C164.309 167.262 165.48 168.375 165.492 170.203C165.48 172.594 163.383 174.258 160.055 174.258C156.82 174.258 154.91 172.805 154.594 170.367H157.641C157.816 171.457 158.66 171.996 160.055 171.984C161.496 171.996 162.434 171.41 162.445 170.461C162.434 169.723 161.859 169.254 160.594 168.984L158.555 168.539C156.188 168.059 154.957 166.816 154.969 165C154.957 162.645 156.996 161.109 160.102 161.109C163.137 161.109 165.012 162.598 165.234 164.906H162.398ZM180.68 164.906C180.492 163.945 179.695 163.324 178.43 163.336C177.152 163.324 176.215 163.969 176.227 164.836C176.215 165.492 176.742 165.984 178.031 166.289L180.188 166.734C182.59 167.262 183.762 168.375 183.773 170.203C183.762 172.594 181.664 174.258 178.336 174.258C175.102 174.258 173.191 172.805 172.875 170.367H175.922C176.098 171.457 176.941 171.996 178.336 171.984C179.777 171.996 180.715 171.41 180.727 170.461C180.715 169.723 180.141 169.254 178.875 168.984L176.836 168.539C174.469 168.059 173.238 166.816 173.25 165C173.238 162.645 175.277 161.109 178.383 161.109C181.418 161.109 183.293 162.598 183.516 164.906H180.68ZM191.695 174.258C187.863 174.258 185.508 171.703 185.508 167.719C185.508 163.781 187.898 161.109 191.531 161.109C194.648 161.109 197.344 163.066 197.344 167.531V168.469H188.461C188.508 170.637 189.785 171.926 191.719 171.914C193.031 171.926 193.91 171.363 194.297 170.602H197.227C196.688 172.805 194.648 174.258 191.695 174.258ZM188.473 166.43H194.484C194.473 164.695 193.301 163.43 191.578 163.43C189.785 163.43 188.578 164.812 188.473 166.43ZM206.016 161.273V163.57H203.508V170.18C203.508 171.398 204.117 171.645 204.867 171.656C205.219 171.668 205.805 171.633 206.18 171.609V174.047C205.828 174.105 205.254 174.176 204.492 174.164C202.242 174.176 200.508 173.062 200.531 170.672V163.57H198.703V161.273H200.531V158.227H203.508V161.273H206.016ZM215.812 178.781C215.215 178.77 214.652 178.758 214.266 178.711V176.32C214.629 176.355 215.133 176.355 215.531 176.367C216.258 176.355 216.867 176.309 217.383 174.938L217.641 174.258L213 161.273H216.164L219.117 170.883H219.258L222.211 161.273H225.375L220.266 175.547C219.539 177.574 218.203 178.77 215.812 178.781ZM232.359 174.258C228.645 174.258 226.266 171.621 226.266 167.695C226.266 163.734 228.645 161.109 232.359 161.109C236.086 161.109 238.465 163.734 238.453 167.695C238.465 171.621 236.086 174.258 232.359 174.258ZM229.289 167.672C229.289 170.004 230.309 171.867 232.383 171.867C234.422 171.867 235.441 170.004 235.43 167.672C235.441 165.34 234.422 163.465 232.383 163.477C230.309 163.465 229.289 165.34 229.289 167.672ZM248.906 168.656V161.273H251.883V174H249V171.75H248.859C248.273 173.168 246.938 174.164 245.039 174.164C242.52 174.164 240.785 172.43 240.773 169.383V161.273H243.773V168.914C243.773 170.531 244.734 171.562 246.188 171.562C247.5 171.562 248.906 170.602 248.906 168.656ZM254.742 174V161.273H257.648V163.383H257.789C258.246 161.918 259.465 161.086 260.93 161.086C261.258 161.086 261.727 161.121 262.008 161.156V163.922C261.738 163.828 261.117 163.746 260.625 163.734C258.961 163.746 257.742 164.895 257.742 166.5V174H254.742ZM275.039 179.039C271.664 179.039 269.52 177.539 269.32 175.148H272.297C272.508 176.262 273.551 176.777 275.086 176.789C276.879 176.777 278.039 176.004 278.039 174.141V171.703H277.898C277.43 172.641 276.41 173.812 274.219 173.812C271.277 173.812 268.969 171.68 268.969 167.531C268.969 163.348 271.289 161.109 274.242 161.109C276.48 161.109 277.43 162.457 277.898 163.359H278.039V161.273H280.992V174.211C280.992 177.469 278.473 179.039 275.039 179.039ZM272.016 167.578C272.016 169.922 273.07 171.469 275.039 171.469C276.973 171.469 278.062 170.016 278.062 167.578C278.062 165.152 276.984 163.559 275.039 163.547C273.047 163.559 272.016 165.258 272.016 167.578ZM289.406 174.258C285.691 174.258 283.312 171.621 283.312 167.695C283.312 163.734 285.691 161.109 289.406 161.109C293.133 161.109 295.512 163.734 295.5 167.695C295.512 171.621 293.133 174.258 289.406 174.258ZM286.336 167.672C286.336 170.004 287.355 171.867 289.43 171.867C291.469 171.867 292.488 170.004 292.477 167.672C292.488 165.34 291.469 163.465 289.43 163.477C287.355 163.465 286.336 165.34 286.336 167.672ZM297.234 170.414C297.234 167.555 299.613 166.723 301.969 166.57C302.859 166.5 304.676 166.418 305.238 166.395L305.227 165.375C305.227 164.109 304.418 163.383 302.93 163.383C301.594 163.383 300.773 163.992 300.539 164.906H297.656C297.867 162.738 299.812 161.109 303 161.109C305.414 161.109 308.203 162.105 308.203 165.492V174H305.344V172.242H305.25C304.688 173.32 303.504 174.258 301.5 174.258C299.074 174.258 297.234 172.934 297.234 170.414ZM300.117 170.391C300.117 171.492 301.02 172.055 302.273 172.055C304.09 172.055 305.25 170.859 305.25 169.43L305.238 168.387C304.699 168.41 303.035 168.516 302.438 168.562C301.02 168.68 300.117 169.277 300.117 170.391ZM314.016 157.031V174H311.016V157.031H314.016ZM324.094 164.906C323.906 163.945 323.109 163.324 321.844 163.336C320.566 163.324 319.629 163.969 319.641 164.836C319.629 165.492 320.156 165.984 321.445 166.289L323.602 166.734C326.004 167.262 327.176 168.375 327.188 170.203C327.176 172.594 325.078 174.258 321.75 174.258C318.516 174.258 316.605 172.805 316.289 170.367H319.336C319.512 171.457 320.355 171.996 321.75 171.984C323.191 171.996 324.129 171.41 324.141 170.461C324.129 169.723 323.555 169.254 322.289 168.984L320.25 168.539C317.883 168.059 316.652 166.816 316.664 165C316.652 162.645 318.691 161.109 321.797 161.109C324.832 161.109 326.707 162.598 326.93 164.906H324.094Z" fill="#171717"/>
<g opacity="0.6">
<path d="M90.5312 203V191.688H95.0312C97.5234 191.688 98.7891 192.891 98.7812 194.594C98.7891 195.922 97.9141 196.758 96.75 197.016V197.125C98.0234 197.188 99.2266 198.203 99.2344 199.875C99.2266 201.672 97.8828 203 95.3281 203H90.5312ZM92.875 201.062H94.8594C96.2188 201.07 96.8047 200.508 96.7969 199.656C96.8047 198.703 96.0781 198.031 94.9219 198.031H92.875V201.062ZM92.875 196.422H94.6875C95.6719 196.43 96.4141 195.875 96.4062 194.969C96.4141 194.148 95.8047 193.594 94.7344 193.594H92.875V196.422ZM104.516 203.172C101.914 203.164 100.32 201.484 100.328 198.797C100.32 196.18 101.938 194.406 104.422 194.406C106.648 194.406 108.406 195.812 108.406 198.703V199.359H102.609C102.609 200.641 103.367 201.43 104.562 201.438C105.352 201.43 105.914 201.086 106.141 200.578H108.344C108.016 202.148 106.609 203.164 104.516 203.172ZM102.609 197.906H106.219C106.211 196.875 105.5 196.133 104.469 196.141C103.406 196.133 102.656 196.93 102.609 197.906ZM109.453 200.625C109.461 198.734 110.977 198.117 112.609 198.016C113.219 197.977 114.359 197.922 114.719 197.906V197.219C114.711 196.508 114.227 196.102 113.359 196.094C112.57 196.102 112.078 196.453 111.953 197.031H109.75C109.891 195.562 111.172 194.406 113.422 194.406C115.273 194.406 117.023 195.234 117.016 197.281V203H114.828V201.828H114.766C114.352 202.609 113.539 203.164 112.281 203.156C110.656 203.164 109.461 202.305 109.453 200.625ZM111.672 200.562C111.672 201.211 112.195 201.555 112.938 201.562C113.992 201.555 114.727 200.867 114.719 199.969V199.352C114.367 199.367 113.375 199.422 112.984 199.453C112.18 199.523 111.672 199.906 111.672 200.562ZM118.828 203V191.688H121.141V195.938H121.203C121.523 195.25 122.195 194.406 123.625 194.406C125.5 194.406 127.07 195.859 127.078 198.766C127.07 201.602 125.562 203.141 123.625 203.141C122.242 203.141 121.539 202.344 121.203 201.641H121.109V203H118.828ZM121.094 198.75C121.086 200.281 121.75 201.289 122.891 201.297C124.07 201.289 124.711 200.25 124.703 198.75C124.711 197.273 124.086 196.25 122.891 196.25C121.742 196.25 121.086 197.227 121.094 198.75ZM128.156 200.625C128.164 198.734 129.68 198.117 131.312 198.016C131.922 197.977 133.062 197.922 133.422 197.906V197.219C133.414 196.508 132.93 196.102 132.062 196.094C131.273 196.102 130.781 196.453 130.656 197.031H128.453C128.594 195.562 129.875 194.406 132.125 194.406C133.977 194.406 135.727 195.234 135.719 197.281V203H133.531V201.828H133.469C133.055 202.609 132.242 203.164 130.984 203.156C129.359 203.164 128.164 202.305 128.156 200.625ZM130.375 200.562C130.375 201.211 130.898 201.555 131.641 201.562C132.695 201.555 133.43 200.867 133.422 199.969V199.352C133.07 199.367 132.078 199.422 131.688 199.453C130.883 199.523 130.375 199.906 130.375 200.562ZM140.609 203.141C138.672 203.141 137.156 201.602 137.156 198.766C137.156 195.859 138.734 194.406 140.609 194.406C142.031 194.406 142.711 195.25 143.016 195.938H143.094V191.688H145.406V203H143.125V201.641H143.016C142.695 202.344 141.992 203.141 140.609 203.141ZM139.531 198.75C139.523 200.25 140.156 201.289 141.328 201.297C142.484 201.289 143.141 200.281 143.141 198.75C143.141 197.227 142.492 196.25 141.328 196.25C140.148 196.25 139.523 197.273 139.531 198.75ZM151.078 203.172C148.516 203.164 146.914 201.406 146.922 198.781C146.914 196.164 148.516 194.406 151.078 194.406C153.648 194.406 155.242 196.164 155.25 198.781C155.242 201.406 153.648 203.164 151.078 203.172ZM149.266 198.781C149.266 200.266 149.883 201.367 151.094 201.375C152.273 201.367 152.898 200.266 152.891 198.781C152.898 197.289 152.273 196.172 151.094 196.172C149.883 196.172 149.266 197.289 149.266 198.781ZM160.516 203.172C157.953 203.164 156.352 201.406 156.359 198.781C156.352 196.164 157.953 194.406 160.516 194.406C163.086 194.406 164.68 196.164 164.688 198.781C164.68 201.406 163.086 203.164 160.516 203.172ZM158.703 198.781C158.703 200.266 159.32 201.367 160.531 201.375C161.711 201.367 162.336 200.266 162.328 198.781C162.336 197.289 161.711 196.172 160.531 196.172C159.32 196.172 158.703 197.289 158.703 198.781Z" fill="#F75053"/>
<path d="M169.984 203V194.516H171.984V203H169.984ZM169.844 192.219C169.844 191.625 170.367 191.141 171 191.141C171.633 191.141 172.156 191.625 172.156 192.219C172.156 192.82 171.633 193.305 171 193.312C170.367 193.305 169.844 192.82 169.844 192.219ZM178.703 196.938C178.578 196.297 178.047 195.883 177.203 195.891C176.352 195.883 175.727 196.312 175.734 196.891C175.727 197.328 176.078 197.656 176.938 197.859L178.375 198.156C179.977 198.508 180.758 199.25 180.766 200.469C180.758 202.062 179.359 203.172 177.141 203.172C174.984 203.172 173.711 202.203 173.5 200.578H175.531C175.648 201.305 176.211 201.664 177.141 201.656C178.102 201.664 178.727 201.273 178.734 200.641C178.727 200.148 178.344 199.836 177.5 199.656L176.141 199.359C174.562 199.039 173.742 198.211 173.75 197C173.742 195.43 175.102 194.406 177.172 194.406C179.195 194.406 180.445 195.398 180.594 196.938H178.703ZM185.688 200.609C185.688 198.703 187.273 198.148 188.844 198.047C189.438 198 190.648 197.945 191.023 197.93L191.016 197.25C191.016 196.406 190.477 195.922 189.484 195.922C188.594 195.922 188.047 196.328 187.891 196.938H185.969C186.109 195.492 187.406 194.406 189.531 194.406C191.141 194.406 193 195.07 193 197.328V203H191.094V201.828H191.031C190.656 202.547 189.867 203.172 188.531 203.172C186.914 203.172 185.688 202.289 185.688 200.609ZM187.609 200.594C187.609 201.328 188.211 201.703 189.047 201.703C190.258 201.703 191.031 200.906 191.031 199.953L191.023 199.258C190.664 199.273 189.555 199.344 189.156 199.375C188.211 199.453 187.609 199.852 187.609 200.594ZM196.875 198.031V203H194.875V194.516H196.781V195.953H196.891C197.273 195.008 198.141 194.406 199.406 194.406C201.164 194.406 202.32 195.562 202.312 197.594V203H200.328V197.906C200.328 196.766 199.711 196.086 198.672 196.094C197.617 196.086 196.875 196.797 196.875 198.031ZM209.031 196.938C208.906 196.297 208.375 195.883 207.531 195.891C206.68 195.883 206.055 196.312 206.062 196.891C206.055 197.328 206.406 197.656 207.266 197.859L208.703 198.156C210.305 198.508 211.086 199.25 211.094 200.469C211.086 202.062 209.688 203.172 207.469 203.172C205.312 203.172 204.039 202.203 203.828 200.578H205.859C205.977 201.305 206.539 201.664 207.469 201.656C208.43 201.664 209.055 201.273 209.062 200.641C209.055 200.148 208.672 199.836 207.828 199.656L206.469 199.359C204.891 199.039 204.07 198.211 204.078 197C204.07 195.43 205.43 194.406 207.5 194.406C209.523 194.406 210.773 195.398 210.922 196.938H209.031ZM214.375 203L211.969 194.516H214L215.5 200.484H215.578L217.094 194.516H219.109L220.641 200.453H220.719L222.203 194.516H224.234L221.828 203H219.75L218.156 197.25H218.047L216.453 203H214.375ZM229.031 203.172C226.477 203.172 224.906 201.469 224.906 198.812C224.906 196.188 226.5 194.406 228.922 194.406C231 194.406 232.797 195.711 232.797 198.688V199.312H226.875C226.906 200.758 227.758 201.617 229.047 201.609C229.922 201.617 230.508 201.242 230.766 200.734H232.719C232.359 202.203 231 203.172 229.031 203.172ZM226.883 197.953H230.891C230.883 196.797 230.102 195.953 228.953 195.953C227.758 195.953 226.953 196.875 226.883 197.953ZM234.344 203V194.516H236.281V195.922H236.375C236.68 194.945 237.492 194.391 238.469 194.391C238.688 194.391 239 194.414 239.188 194.438V196.281C239.008 196.219 238.594 196.164 238.266 196.156C237.156 196.164 236.344 196.93 236.344 198V203H234.344ZM240.375 203V194.516H242.375V203H240.375ZM240.234 192.219C240.234 191.625 240.758 191.141 241.391 191.141C242.023 191.141 242.547 191.625 242.547 192.219C242.547 192.82 242.023 193.305 241.391 193.312C240.758 193.305 240.234 192.82 240.234 192.219ZM246.281 198.031V203H244.281V194.516H246.188V195.953H246.297C246.68 195.008 247.547 194.406 248.812 194.406C250.57 194.406 251.727 195.562 251.719 197.594V203H249.734V197.906C249.734 196.766 249.117 196.086 248.078 196.094C247.023 196.086 246.281 196.797 246.281 198.031ZM257.328 206.359C255.078 206.359 253.648 205.359 253.516 203.766H255.5C255.641 204.508 256.336 204.852 257.359 204.859C258.555 204.852 259.328 204.336 259.328 203.094V201.469H259.234C258.922 202.094 258.242 202.875 256.781 202.875C254.82 202.875 253.281 201.453 253.281 198.688C253.281 195.898 254.828 194.406 256.797 194.406C258.289 194.406 258.922 195.305 259.234 195.906H259.328V194.516H261.297V203.141C261.297 205.312 259.617 206.359 257.328 206.359ZM255.312 198.719C255.312 200.281 256.016 201.312 257.328 201.312C258.617 201.312 259.344 200.344 259.344 198.719C259.344 197.102 258.625 196.039 257.328 196.031C256 196.039 255.312 197.172 255.312 198.719ZM271.234 194.516V196.047H269.562V200.453C269.562 201.266 269.969 201.43 270.469 201.438C270.703 201.445 271.094 201.422 271.344 201.406V203.031C271.109 203.07 270.727 203.117 270.219 203.109C268.719 203.117 267.562 202.375 267.578 200.781V196.047H266.359V194.516H267.578V192.484H269.562V194.516H271.234ZM276.375 203.172C273.898 203.172 272.312 201.414 272.312 198.797C272.312 196.156 273.898 194.406 276.375 194.406C278.859 194.406 280.445 196.156 280.438 198.797C280.445 201.414 278.859 203.172 276.375 203.172ZM274.328 198.781C274.328 200.336 275.008 201.578 276.391 201.578C277.75 201.578 278.43 200.336 278.422 198.781C278.43 197.227 277.75 195.977 276.391 195.984C275.008 195.977 274.328 197.227 274.328 198.781ZM285.688 203.172C283.211 203.172 281.625 201.414 281.625 198.797C281.625 196.156 283.211 194.406 285.688 194.406C288.172 194.406 289.758 196.156 289.75 198.797C289.758 201.414 288.172 203.172 285.688 203.172ZM283.641 198.781C283.641 200.336 284.32 201.578 285.703 201.578C287.062 201.578 287.742 200.336 287.734 198.781C287.742 197.227 287.062 195.977 285.703 195.984C284.32 195.977 283.641 197.227 283.641 198.781ZM292.531 203.125C291.859 203.125 291.305 202.578 291.312 201.906C291.305 201.25 291.859 200.711 292.531 200.703C293.18 200.711 293.734 201.25 293.734 201.906C293.734 202.578 293.18 203.125 292.531 203.125ZM296.891 203.125C296.219 203.125 295.664 202.578 295.672 201.906C295.664 201.25 296.219 200.711 296.891 200.703C297.539 200.711 298.094 201.25 298.094 201.906C298.094 202.578 297.539 203.125 296.891 203.125ZM301.25 203.125C300.578 203.125 300.023 202.578 300.031 201.906C300.023 201.25 300.578 200.711 301.25 200.703C301.898 200.711 302.453 201.25 302.453 201.906C302.453 202.578 301.898 203.125 301.25 203.125Z" fill="#171717"/>
</g>
<rect x="16" y="723" width="361" height="64" rx="10" fill="#171717"/>
<path d="M147.564 762V747.859H150.104V759.852H156.354V762H147.564ZM162.975 762.215C159.781 762.215 157.818 760.086 157.818 756.766C157.818 753.484 159.811 751.258 162.838 751.258C165.436 751.258 167.682 752.889 167.682 756.609V757.391H160.279C160.318 759.197 161.383 760.271 162.994 760.262C164.088 760.271 164.82 759.803 165.143 759.168H167.584C167.135 761.004 165.436 762.215 162.975 762.215ZM160.289 755.691H165.299C165.289 754.246 164.312 753.191 162.877 753.191C161.383 753.191 160.377 754.344 160.289 755.691ZM174.908 751.395V753.309H172.818V758.816C172.818 759.832 173.326 760.037 173.951 760.047C174.244 760.057 174.732 760.027 175.045 760.008V762.039C174.752 762.088 174.273 762.146 173.639 762.137C171.764 762.146 170.318 761.219 170.338 759.227V753.309H168.814V751.395H170.338V748.855H172.818V751.395H174.908ZM180.377 747.879L178.736 753.348H176.881L177.896 747.879H180.377ZM186.939 754.422C186.783 753.621 186.119 753.104 185.064 753.113C184 753.104 183.219 753.641 183.229 754.363C183.219 754.91 183.658 755.32 184.732 755.574L186.529 755.945C188.531 756.385 189.508 757.312 189.518 758.836C189.508 760.828 187.76 762.215 184.986 762.215C182.291 762.215 180.699 761.004 180.436 758.973H182.975C183.121 759.881 183.824 760.33 184.986 760.32C186.188 760.33 186.969 759.842 186.979 759.051C186.969 758.436 186.49 758.045 185.436 757.82L183.736 757.449C181.764 757.049 180.738 756.014 180.748 754.5C180.738 752.537 182.438 751.258 185.025 751.258C187.555 751.258 189.117 752.498 189.303 754.422H186.939ZM203.971 751.746C203.844 750.525 202.818 749.822 201.295 749.832C199.684 749.822 198.727 750.604 198.717 751.668C198.707 752.859 199.967 753.348 201.139 753.621L202.467 753.973C204.576 754.461 206.607 755.574 206.607 758.035C206.607 760.516 204.645 762.215 201.256 762.215C197.965 762.215 195.875 760.633 195.768 757.84H198.268C198.385 759.314 199.625 760.037 201.236 760.047C202.906 760.037 204.059 759.227 204.068 758.016C204.059 756.902 203.043 756.434 201.51 756.043L199.908 755.633C197.584 755.027 196.139 753.855 196.139 751.824C196.139 749.324 198.355 747.664 201.334 747.664C204.332 747.664 206.373 749.354 206.412 751.746H203.971ZM213.893 751.395V753.309H211.803V758.816C211.803 759.832 212.311 760.037 212.936 760.047C213.229 760.057 213.717 760.027 214.029 760.008V762.039C213.736 762.088 213.258 762.146 212.623 762.137C210.748 762.146 209.303 761.219 209.322 759.227V753.309H207.799V751.395H209.322V748.855H211.803V751.395H213.893ZM215.318 759.012C215.318 756.629 217.301 755.936 219.264 755.809C220.006 755.75 221.52 755.682 221.988 755.662L221.979 754.812C221.979 753.758 221.305 753.152 220.064 753.152C218.951 753.152 218.268 753.66 218.072 754.422H215.67C215.846 752.615 217.467 751.258 220.123 751.258C222.135 751.258 224.459 752.088 224.459 754.91V762H222.076V760.535H221.998C221.529 761.434 220.543 762.215 218.873 762.215C216.852 762.215 215.318 761.111 215.318 759.012ZM217.721 758.992C217.721 759.91 218.473 760.379 219.518 760.379C221.031 760.379 221.998 759.383 221.998 758.191L221.988 757.322C221.539 757.342 220.152 757.43 219.654 757.469C218.473 757.566 217.721 758.064 217.721 758.992ZM226.803 762V751.395H229.225V753.152H229.342C229.723 751.932 230.738 751.238 231.959 751.238C232.232 751.238 232.623 751.268 232.857 751.297V753.602C232.633 753.523 232.115 753.455 231.705 753.445C230.318 753.455 229.303 754.412 229.303 755.75V762H226.803ZM240.221 751.395V753.309H238.131V758.816C238.131 759.832 238.639 760.037 239.264 760.047C239.557 760.057 240.045 760.027 240.357 760.008V762.039C240.064 762.088 239.586 762.146 238.951 762.137C237.076 762.146 235.631 761.219 235.65 759.227V753.309H234.127V751.395H235.65V748.855H238.131V751.395H240.221ZM245.162 747.859L244.947 757.84H242.74L242.506 747.859H245.162ZM242.33 760.633C242.32 759.812 243.014 759.139 243.854 759.129C244.664 759.139 245.357 759.812 245.357 760.633C245.357 761.473 244.664 762.156 243.854 762.156C243.014 762.156 242.32 761.473 242.33 760.633Z" fill="white"/>
<path d="M20.2969 325L16.3125 310.859H19.0469L21.6055 321.27H21.7422L24.457 310.859H26.957L29.6914 321.289H29.8086L32.3672 310.859H35.1016L31.1172 325H28.5977L25.7656 315.059H25.668L22.8164 325H20.2969ZM39.1055 318.789V325H36.6055V310.859H39.0469V316.191H39.1836C39.6621 314.99 40.6973 314.258 42.3281 314.258C44.5254 314.258 45.9805 315.684 45.9805 318.242V325H43.5V318.633C43.4902 317.188 42.7188 316.357 41.4102 316.367C40.0625 316.357 39.1055 317.246 39.1055 318.789ZM47.8555 322.012C47.8555 319.629 49.8379 318.936 51.8008 318.809C52.543 318.75 54.0566 318.682 54.5254 318.662L54.5156 317.812C54.5156 316.758 53.8418 316.152 52.6016 316.152C51.4883 316.152 50.8047 316.66 50.6094 317.422H48.207C48.3828 315.615 50.0039 314.258 52.6602 314.258C54.6719 314.258 56.9961 315.088 56.9961 317.91V325H54.6133V323.535H54.5352C54.0664 324.434 53.0801 325.215 51.4102 325.215C49.3887 325.215 47.8555 324.111 47.8555 322.012ZM50.2578 321.992C50.2578 322.91 51.0098 323.379 52.0547 323.379C53.5684 323.379 54.5352 322.383 54.5352 321.191L54.5254 320.322C54.0762 320.342 52.6895 320.43 52.1914 320.469C51.0098 320.566 50.2578 321.064 50.2578 321.992ZM64.6328 314.395V316.309H62.543V321.816C62.543 322.832 63.0508 323.037 63.6758 323.047C63.9688 323.057 64.457 323.027 64.7695 323.008V325.039C64.4766 325.088 63.998 325.146 63.3633 325.137C61.4883 325.146 60.043 324.219 60.0625 322.227V316.309H58.5391V314.395H60.0625V311.855H62.543V314.395H64.6328ZM71.293 325V314.395H73.793V325H71.293ZM71.1172 311.523C71.1172 310.781 71.7715 310.176 72.5625 310.176C73.3535 310.176 74.0078 310.781 74.0078 311.523C74.0078 312.275 73.3535 312.881 72.5625 312.891C71.7715 312.881 71.1172 312.275 71.1172 311.523ZM82.1914 317.422C82.0352 316.621 81.3711 316.104 80.3164 316.113C79.252 316.104 78.4707 316.641 78.4805 317.363C78.4707 317.91 78.9102 318.32 79.9844 318.574L81.7812 318.945C83.7832 319.385 84.7598 320.312 84.7695 321.836C84.7598 323.828 83.0117 325.215 80.2383 325.215C77.543 325.215 75.9512 324.004 75.6875 321.973H78.2266C78.373 322.881 79.0762 323.33 80.2383 323.32C81.4395 323.33 82.2207 322.842 82.2305 322.051C82.2207 321.436 81.7422 321.045 80.6875 320.82L78.9883 320.449C77.0156 320.049 75.9902 319.014 76 317.5C75.9902 315.537 77.6895 314.258 80.2773 314.258C82.8066 314.258 84.3691 315.498 84.5547 317.422H82.1914ZM92.9141 328.984C92.416 328.975 91.9473 328.965 91.625 328.926V326.934C91.9277 326.963 92.3477 326.963 92.6797 326.973C93.2852 326.963 93.793 326.924 94.2227 325.781L94.4375 325.215L90.5703 314.395H93.207L95.668 322.402H95.7852L98.2461 314.395H100.883L96.625 326.289C96.0195 327.979 94.9062 328.975 92.9141 328.984ZM106.703 325.215C103.607 325.215 101.625 323.018 101.625 319.746C101.625 316.445 103.607 314.258 106.703 314.258C109.809 314.258 111.791 316.445 111.781 319.746C111.791 323.018 109.809 325.215 106.703 325.215ZM104.145 319.727C104.145 321.67 104.994 323.223 106.723 323.223C108.422 323.223 109.271 321.67 109.262 319.727C109.271 317.783 108.422 316.221 106.723 316.23C104.994 316.221 104.145 317.783 104.145 319.727ZM120.492 320.547V314.395H122.973V325H120.57V323.125H120.453C119.965 324.307 118.852 325.137 117.27 325.137C115.17 325.137 113.725 323.691 113.715 321.152V314.395H116.215V320.762C116.215 322.109 117.016 322.969 118.227 322.969C119.32 322.969 120.492 322.168 120.492 320.547ZM125.355 325V314.395H127.777V316.152H127.895C128.275 314.932 129.291 314.238 130.512 314.238C130.785 314.238 131.176 314.268 131.41 314.297V316.602C131.186 316.523 130.668 316.455 130.258 316.445C128.871 316.455 127.855 317.412 127.855 318.75V325H125.355ZM142.27 329.199C139.457 329.199 137.67 327.949 137.504 325.957H139.984C140.16 326.885 141.029 327.314 142.309 327.324C143.803 327.314 144.77 326.67 144.77 325.117V323.086H144.652C144.262 323.867 143.412 324.844 141.586 324.844C139.135 324.844 137.211 323.066 137.211 319.609C137.211 316.123 139.145 314.258 141.605 314.258C143.471 314.258 144.262 315.381 144.652 316.133H144.77V314.395H147.23V325.176C147.23 327.891 145.131 329.199 142.27 329.199ZM139.75 319.648C139.75 321.602 140.629 322.891 142.27 322.891C143.881 322.891 144.789 321.68 144.789 319.648C144.789 317.627 143.891 316.299 142.27 316.289C140.609 316.299 139.75 317.715 139.75 319.648ZM154.242 325.215C151.146 325.215 149.164 323.018 149.164 319.746C149.164 316.445 151.146 314.258 154.242 314.258C157.348 314.258 159.33 316.445 159.32 319.746C159.33 323.018 157.348 325.215 154.242 325.215ZM151.684 319.727C151.684 321.67 152.533 323.223 154.262 323.223C155.961 323.223 156.811 321.67 156.801 319.727C156.811 317.783 155.961 316.221 154.262 316.23C152.533 316.221 151.684 317.783 151.684 319.727ZM160.766 322.012C160.766 319.629 162.748 318.936 164.711 318.809C165.453 318.75 166.967 318.682 167.436 318.662L167.426 317.812C167.426 316.758 166.752 316.152 165.512 316.152C164.398 316.152 163.715 316.66 163.52 317.422H161.117C161.293 315.615 162.914 314.258 165.57 314.258C167.582 314.258 169.906 315.088 169.906 317.91V325H167.523V323.535H167.445C166.977 324.434 165.99 325.215 164.32 325.215C162.299 325.215 160.766 324.111 160.766 322.012ZM163.168 321.992C163.168 322.91 163.92 323.379 164.965 323.379C166.479 323.379 167.445 322.383 167.445 321.191L167.436 320.322C166.986 320.342 165.6 320.43 165.102 320.469C163.92 320.566 163.168 321.064 163.168 321.992ZM174.75 310.859V325H172.25V310.859H174.75ZM179.516 320.664C179.535 318.174 180.238 317.412 181.469 316.66C182.299 316.123 182.943 315.469 182.934 314.492C182.943 313.398 182.084 312.695 181.02 312.695C180.053 312.695 179.115 313.32 179.047 314.629H176.605C176.674 312.002 178.627 310.664 181.039 310.664C183.676 310.664 185.482 312.129 185.492 314.453C185.482 316.045 184.691 317.08 183.422 317.832C182.289 318.525 181.82 319.199 181.801 320.664V320.84H179.516V320.664ZM179.203 323.633C179.193 322.812 179.887 322.139 180.727 322.129C181.537 322.139 182.23 322.812 182.23 323.633C182.23 324.473 181.537 325.156 180.727 325.156C179.887 325.156 179.193 324.473 179.203 323.633Z" fill="#171717"/>
<rect x="16" y="338" width="361" height="88" rx="10" fill="#F6F5FA"/>
<path opacity="0.3" d="M43.3906 373L40.25 361.688H42.0625L44.2656 370.438H44.3594L46.6562 361.688H48.4375L50.7344 370.438H50.8281L53.0312 361.688H54.8438L51.7031 373H49.9688L47.5938 364.547H47.5L45.125 373H43.3906ZM57.7812 367.969V373H56.1094V361.688H57.75V365.906H57.8594C58.2578 364.984 59.0547 364.406 60.375 364.406C62.1172 364.406 63.2812 365.484 63.2812 367.609V373H61.6094V367.812C61.6094 366.562 60.9375 365.844 59.8125 365.844C58.6328 365.844 57.7812 366.617 57.7812 367.969ZM64.9062 370.609C64.8984 368.672 66.5469 368.172 68.0781 368.062C68.6406 368.031 69.9141 367.961 70.3047 367.945L70.2969 367.266C70.3047 366.305 69.7109 365.75 68.5781 365.75C67.5938 365.75 67 366.203 66.8281 366.828H65.1719C65.3203 365.422 66.6328 364.406 68.6406 364.406C69.9922 364.406 71.9609 364.898 71.9688 367.359V373H70.3438V371.844H70.2812C69.9531 372.477 69.1719 373.188 67.7656 373.188C66.1562 373.188 64.8984 372.266 64.9062 370.609ZM66.5312 370.625C66.5312 371.438 67.2031 371.852 68.1406 371.859C69.5 371.852 70.3125 370.945 70.3125 369.938L70.3047 369.164C69.9219 369.188 68.7109 369.273 68.3125 369.297C67.2188 369.375 66.5312 369.789 66.5312 370.625ZM77.9531 364.516V365.844H76.2188V370.5C76.2266 371.461 76.6953 371.633 77.2344 371.641C77.4766 371.641 77.8438 371.617 78.0781 371.594V373.047C77.8516 373.078 77.4922 373.109 77.0312 373.109C75.7266 373.109 74.5469 372.391 74.5625 370.844V365.844H73.3125V364.516H74.5625V362.484H76.2188V364.516H77.9531ZM86.6562 373.172C84.6094 373.164 83.1094 371.516 83.1094 368.781C83.1094 366.016 84.6328 364.406 86.6719 364.406C88.25 364.406 88.8203 365.359 89.125 365.891H89.2031V361.688H90.875V373H89.25V371.672H89.125C88.8125 372.227 88.2031 373.164 86.6562 373.172ZM84.8125 368.75C84.8047 370.453 85.5703 371.742 87.0312 371.75C88.4531 371.742 89.25 370.531 89.25 368.75C89.25 366.984 88.4688 365.82 87.0312 365.828C85.5547 365.82 84.8047 367.078 84.8125 368.75ZM96.6406 373.172C94.2344 373.172 92.6641 371.422 92.6719 368.797C92.6641 366.156 94.2344 364.406 96.6406 364.406C99.0312 364.406 100.594 366.156 100.594 368.797C100.594 371.422 99.0312 373.172 96.6406 373.172ZM94.3438 368.797C94.3438 370.414 95.0859 371.781 96.6406 371.781C98.1719 371.781 98.9062 370.414 98.9062 368.797C98.9062 367.172 98.1719 365.789 96.6406 365.781C95.0859 365.789 94.3438 367.172 94.3438 368.797ZM107.172 376.188C106.828 376.18 106.492 376.172 106.281 376.141V374.75C106.469 374.766 106.797 374.773 107.031 374.781C107.547 374.773 107.977 374.742 108.375 373.672L108.578 373.109L105.469 364.516H107.25L109.391 371.094H109.484L111.625 364.516H113.422L109.922 374.125C109.43 375.469 108.57 376.18 107.172 376.188ZM118.078 373.172C115.672 373.172 114.102 371.422 114.109 368.797C114.102 366.156 115.672 364.406 118.078 364.406C120.469 364.406 122.031 366.156 122.031 368.797C122.031 371.422 120.469 373.172 118.078 373.172ZM115.781 368.797C115.781 370.414 116.523 371.781 118.078 371.781C119.609 371.781 120.344 370.414 120.344 368.797C120.344 367.172 119.609 365.789 118.078 365.781C116.523 365.789 115.781 367.172 115.781 368.797ZM129.062 369.469V364.516H130.719V373H129.094V371.531H129C128.609 372.438 127.742 373.109 126.469 373.109C124.828 373.109 123.672 372.008 123.672 369.906V364.516H125.344V369.703C125.344 370.859 126.047 371.594 127.062 371.594C127.992 371.594 129.062 370.914 129.062 369.469ZM138.484 373L136 364.516H137.719L139.375 370.734H139.469L141.125 364.516H142.844L144.484 370.703H144.578L146.219 364.516H147.938L145.453 373H143.75L142.031 366.891H141.906L140.203 373H138.484ZM148.922 370.609C148.914 368.672 150.562 368.172 152.094 368.062C152.656 368.031 153.93 367.961 154.32 367.945L154.312 367.266C154.32 366.305 153.727 365.75 152.594 365.75C151.609 365.75 151.016 366.203 150.844 366.828H149.188C149.336 365.422 150.648 364.406 152.656 364.406C154.008 364.406 155.977 364.898 155.984 367.359V373H154.359V371.844H154.297C153.969 372.477 153.188 373.188 151.781 373.188C150.172 373.188 148.914 372.266 148.922 370.609ZM150.547 370.625C150.547 371.438 151.219 371.852 152.156 371.859C153.516 371.852 154.328 370.945 154.328 369.938L154.32 369.164C153.938 369.188 152.727 369.273 152.328 369.297C151.234 369.375 150.547 369.789 150.547 370.625ZM159.672 367.969V373H158V364.516H159.609V365.906H159.703C160.102 364.992 160.938 364.406 162.203 364.406C163.945 364.406 165.102 365.508 165.094 367.609V373H163.438V367.812C163.43 366.578 162.766 365.844 161.641 365.844C160.492 365.844 159.672 366.617 159.672 367.969ZM171.094 364.516V365.844H169.359V370.5C169.367 371.461 169.836 371.633 170.375 371.641C170.617 371.641 170.984 371.617 171.219 371.594V373.047C170.992 373.078 170.633 373.109 170.172 373.109C168.867 373.109 167.688 372.391 167.703 370.844V365.844H166.453V364.516H167.703V362.484H169.359V364.516H171.094ZM180.594 364.516V365.844H178.859V370.5C178.867 371.461 179.336 371.633 179.875 371.641C180.117 371.641 180.484 371.617 180.719 371.594V373.047C180.492 373.078 180.133 373.109 179.672 373.109C178.367 373.109 177.188 372.391 177.203 370.844V365.844H175.953V364.516H177.203V362.484H178.859V364.516H180.594ZM185.719 373.172C183.312 373.172 181.742 371.422 181.75 368.797C181.742 366.156 183.312 364.406 185.719 364.406C188.109 364.406 189.672 366.156 189.672 368.797C189.672 371.422 188.109 373.172 185.719 373.172ZM183.422 368.797C183.422 370.414 184.164 371.781 185.719 371.781C187.25 371.781 187.984 370.414 187.984 368.797C187.984 367.172 187.25 365.789 185.719 365.781C184.164 365.789 183.422 367.172 183.422 368.797ZM194.828 370.609C194.82 368.672 196.469 368.172 198 368.062C198.562 368.031 199.836 367.961 200.227 367.945L200.219 367.266C200.227 366.305 199.633 365.75 198.5 365.75C197.516 365.75 196.922 366.203 196.75 366.828H195.094C195.242 365.422 196.555 364.406 198.562 364.406C199.914 364.406 201.883 364.898 201.891 367.359V373H200.266V371.844H200.203C199.875 372.477 199.094 373.188 197.688 373.188C196.078 373.188 194.82 372.266 194.828 370.609ZM196.453 370.625C196.453 371.438 197.125 371.852 198.062 371.859C199.422 371.852 200.234 370.945 200.234 369.938L200.227 369.164C199.844 369.188 198.633 369.273 198.234 369.297C197.141 369.375 196.453 369.789 196.453 370.625ZM207.5 373.172C205.023 373.172 203.523 371.352 203.531 368.797C203.523 366.211 205.078 364.406 207.469 364.406C209.406 364.406 210.805 365.547 210.984 367.266H209.359C209.188 366.469 208.555 365.805 207.5 365.797C206.125 365.805 205.203 366.945 205.203 368.75C205.203 370.609 206.102 371.758 207.5 371.75C208.445 371.758 209.148 371.227 209.359 370.312H210.984C210.805 371.961 209.5 373.172 207.5 373.172ZM214.234 367.969V373H212.562V361.688H214.203V365.906H214.312C214.711 364.984 215.508 364.406 216.828 364.406C218.57 364.406 219.734 365.484 219.734 367.609V373H218.062V367.812C218.062 366.562 217.391 365.844 216.266 365.844C215.086 365.844 214.234 366.617 214.234 367.969ZM221.75 373V364.516H223.422V373H221.75ZM221.531 362.219C221.539 361.672 222.016 361.234 222.594 361.234C223.164 361.234 223.641 361.672 223.641 362.219C223.641 362.766 223.164 363.211 222.594 363.203C222.016 363.211 221.539 362.766 221.531 362.219ZM229.109 373.172C226.609 373.172 225.07 371.445 225.078 368.812C225.07 366.203 226.633 364.406 229 364.406C230.93 364.406 232.766 365.602 232.766 368.672V369.266H226.734C226.781 370.883 227.734 371.797 229.125 371.797C230.07 371.797 230.688 371.391 230.969 370.875H232.656C232.281 372.25 230.977 373.172 229.109 373.172ZM226.742 368.016H231.125C231.125 366.727 230.289 365.773 229.016 365.781C227.68 365.773 226.812 366.82 226.742 368.016ZM241.438 364.516L238.359 373H236.562L233.484 364.516H235.281L237.422 371.031H237.5L239.641 364.516H241.438ZM246.156 373.172C243.656 373.172 242.117 371.445 242.125 368.812C242.117 366.203 243.68 364.406 246.047 364.406C247.977 364.406 249.812 365.602 249.812 368.672V369.266H243.781C243.828 370.883 244.781 371.797 246.172 371.797C247.117 371.797 247.734 371.391 248.016 370.875H249.703C249.328 372.25 248.023 373.172 246.156 373.172ZM243.789 368.016H248.172C248.172 366.727 247.336 365.773 246.062 365.781C244.727 365.773 243.859 366.82 243.789 368.016ZM257.203 373L254.719 364.516H256.438L258.094 370.734H258.188L259.844 364.516H261.562L263.203 370.703H263.297L264.938 364.516H266.656L264.172 373H262.469L260.75 366.891H260.625L258.922 373H257.203ZM268.031 373V364.516H269.703V373H268.031ZM267.812 362.219C267.82 361.672 268.297 361.234 268.875 361.234C269.445 361.234 269.922 361.672 269.922 362.219C269.922 362.766 269.445 363.211 268.875 363.203C268.297 363.211 267.82 362.766 267.812 362.219ZM275.703 364.516V365.844H273.969V370.5C273.977 371.461 274.445 371.633 274.984 371.641C275.227 371.641 275.594 371.617 275.828 371.594V373.047C275.602 373.078 275.242 373.109 274.781 373.109C273.477 373.109 272.297 372.391 272.312 370.844V365.844H271.062V364.516H272.312V362.484H273.969V364.516H275.703ZM279.188 367.969V373H277.516V361.688H279.156V365.906H279.266C279.664 364.984 280.461 364.406 281.781 364.406C283.523 364.406 284.688 365.484 284.688 367.609V373H283.016V367.812C283.016 366.562 282.344 365.844 281.219 365.844C280.039 365.844 279.188 366.617 279.188 367.969ZM291.641 376.188C291.297 376.18 290.961 376.172 290.75 376.141V374.75C290.938 374.766 291.266 374.773 291.5 374.781C292.016 374.773 292.445 374.742 292.844 373.672L293.047 373.109L289.938 364.516H291.719L293.859 371.094H293.953L296.094 364.516H297.891L294.391 374.125C293.898 375.469 293.039 376.18 291.641 376.188ZM302.547 373.172C300.141 373.172 298.57 371.422 298.578 368.797C298.57 366.156 300.141 364.406 302.547 364.406C304.938 364.406 306.5 366.156 306.5 368.797C306.5 371.422 304.938 373.172 302.547 373.172ZM300.25 368.797C300.25 370.414 300.992 371.781 302.547 371.781C304.078 371.781 304.812 370.414 304.812 368.797C304.812 367.172 304.078 365.789 302.547 365.781C300.992 365.789 300.25 367.172 300.25 368.797ZM313.531 369.469V364.516H315.188V373H313.562V371.531H313.469C313.078 372.438 312.211 373.109 310.938 373.109C309.297 373.109 308.141 372.008 308.141 369.906V364.516H309.812V369.703C309.812 370.859 310.516 371.594 311.531 371.594C312.461 371.594 313.531 370.914 313.531 369.469ZM317.219 373V364.516H318.828V365.859H318.922C319.234 364.953 320.086 364.383 321.078 364.391C321.281 364.383 321.609 364.406 321.781 364.422V366.016C321.641 365.984 321.25 365.914 320.906 365.922C319.75 365.914 318.891 366.719 318.891 367.828V373H317.219ZM41.1562 392V380.688H45.1875C47.8203 380.688 49.1094 382.148 49.1094 384.234C49.1094 385.758 48.4219 386.906 47.0469 387.43L49.5469 392H47.5938L45.2969 387.734H45.1875H42.875V392H41.1562ZM42.875 386.25H45.0156C46.6797 386.242 47.375 385.508 47.375 384.234C47.375 382.961 46.6797 382.164 45.0156 382.156H42.875V386.25ZM54.3594 392.172C51.9531 392.172 50.3828 390.422 50.3906 387.797C50.3828 385.156 51.9531 383.406 54.3594 383.406C56.75 383.406 58.3125 385.156 58.3125 387.797C58.3125 390.422 56.75 392.172 54.3594 392.172ZM52.0625 387.797C52.0625 389.414 52.8047 390.781 54.3594 390.781C55.8906 390.781 56.625 389.414 56.625 387.797C56.625 386.172 55.8906 384.789 54.3594 384.781C52.8047 384.789 52.0625 386.172 52.0625 387.797ZM63.5469 392.172C61.1406 392.172 59.5703 390.422 59.5781 387.797C59.5703 385.156 61.1406 383.406 63.5469 383.406C65.9375 383.406 67.5 385.156 67.5 387.797C67.5 390.422 65.9375 392.172 63.5469 392.172ZM61.25 387.797C61.25 389.414 61.9922 390.781 63.5469 390.781C65.0781 390.781 65.8125 389.414 65.8125 387.797C65.8125 386.172 65.0781 384.789 63.5469 384.781C61.9922 384.789 61.25 386.172 61.25 387.797ZM69.1406 392V383.516H70.75V384.906H70.8438C71.2031 383.961 72.0391 383.406 73.1562 383.406C74.2891 383.406 75.0781 383.961 75.4375 384.906H75.5312C75.9297 383.992 76.8516 383.406 78.0781 383.406C79.6094 383.406 80.6953 384.367 80.7031 386.312V392H79.0312V386.469C79.0312 385.32 78.3125 384.844 77.4375 384.844C76.3672 384.844 75.75 385.578 75.75 386.594V392H74.0938V386.375C74.0938 385.445 73.4609 384.844 72.5469 384.844C71.6094 384.844 70.8125 385.625 70.8125 386.766V392H69.1406ZM82.7188 392V383.516H84.3906V392H82.7188ZM82.5 381.219C82.5078 380.672 82.9844 380.234 83.5625 380.234C84.1328 380.234 84.6094 380.672 84.6094 381.219C84.6094 381.766 84.1328 382.211 83.5625 382.203C82.9844 382.211 82.5078 381.766 82.5 381.219ZM90.0781 392.172C87.5781 392.172 86.0391 390.445 86.0469 387.812C86.0391 385.203 87.6016 383.406 89.9688 383.406C91.8984 383.406 93.7344 384.602 93.7344 387.672V388.266H87.7031C87.75 389.883 88.7031 390.797 90.0938 390.797C91.0391 390.797 91.6562 390.391 91.9375 389.875H93.625C93.25 391.25 91.9453 392.172 90.0781 392.172ZM87.7109 387.016H92.0938C92.0938 385.727 91.2578 384.773 89.9844 384.781C88.6484 384.773 87.7812 385.82 87.7109 387.016ZM97.1875 388.641C97.2109 386.594 97.8125 385.969 98.8438 385.328C99.5 384.93 100 384.352 100 383.531C100 382.555 99.25 381.938 98.3125 381.938C97.4688 381.938 96.6484 382.453 96.5781 383.609H94.8906C94.9531 381.617 96.4531 380.531 98.3125 380.531C100.344 380.531 101.703 381.75 101.703 383.531C101.703 384.789 101.102 385.625 100.109 386.234C99.1719 386.805 98.8047 387.367 98.7812 388.641V388.734H97.1875V388.641ZM96.9375 391C96.9297 390.391 97.4375 389.891 98.0469 389.891C98.6484 389.891 99.1484 390.391 99.1562 391C99.1484 391.609 98.6484 392.102 98.0469 392.109C97.4375 392.102 96.9297 391.609 96.9375 391Z" fill="#171717"/>
<path d="M20.2969 469L16.3125 454.859H19.0469L21.6055 465.27H21.7422L24.457 454.859H26.957L29.6914 465.289H29.8086L32.3672 454.859H35.1016L31.1172 469H28.5977L25.7656 459.059H25.668L22.8164 469H20.2969ZM39.1055 462.789V469H36.6055V454.859H39.0469V460.191H39.1836C39.6621 458.99 40.6973 458.258 42.3281 458.258C44.5254 458.258 45.9805 459.684 45.9805 462.242V469H43.5V462.633C43.4902 461.188 42.7188 460.357 41.4102 460.367C40.0625 460.357 39.1055 461.246 39.1055 462.789ZM53.0508 469.215C49.8574 469.215 47.8945 467.086 47.8945 463.766C47.8945 460.484 49.8867 458.258 52.9141 458.258C55.5117 458.258 57.7578 459.889 57.7578 463.609V464.391H50.3555C50.3945 466.197 51.459 467.271 53.0703 467.262C54.1641 467.271 54.8965 466.803 55.2188 466.168H57.6602C57.2109 468.004 55.5117 469.215 53.0508 469.215ZM50.3652 462.691H55.375C55.3652 461.246 54.3887 460.191 52.9531 460.191C51.459 460.191 50.4531 461.344 50.3652 462.691ZM62.1914 462.789V469H59.6914V458.395H62.0742V460.191H62.2109C62.6895 459.01 63.7734 458.258 65.3555 458.258C67.5527 458.258 68.998 459.703 68.9883 462.242V469H66.5078V462.633C66.5078 461.207 65.7363 460.357 64.4375 460.367C63.1191 460.357 62.1914 461.246 62.1914 462.789ZM76.1172 469V458.395H78.6172V469H76.1172ZM75.9414 455.523C75.9414 454.781 76.5957 454.176 77.3867 454.176C78.1777 454.176 78.832 454.781 78.832 455.523C78.832 456.275 78.1777 456.881 77.3867 456.891C76.5957 456.881 75.9414 456.275 75.9414 455.523ZM87.0156 461.422C86.8594 460.621 86.1953 460.104 85.1406 460.113C84.0762 460.104 83.2949 460.641 83.3047 461.363C83.2949 461.91 83.7344 462.32 84.8086 462.574L86.6055 462.945C88.6074 463.385 89.584 464.312 89.5938 465.836C89.584 467.828 87.8359 469.215 85.0625 469.215C82.3672 469.215 80.7754 468.004 80.5117 465.973H83.0508C83.1973 466.881 83.9004 467.33 85.0625 467.32C86.2637 467.33 87.0449 466.842 87.0547 466.051C87.0449 465.436 86.5664 465.045 85.5117 464.82L83.8125 464.449C81.8398 464.049 80.8145 463.014 80.8242 461.5C80.8145 459.537 82.5137 458.258 85.1016 458.258C87.6309 458.258 89.1934 459.498 89.3789 461.422H87.0156ZM96.2344 469V458.395H98.7344V469H96.2344ZM96.0586 455.523C96.0586 454.781 96.7129 454.176 97.5039 454.176C98.2949 454.176 98.9492 454.781 98.9492 455.523C98.9492 456.275 98.2949 456.881 97.5039 456.891C96.7129 456.881 96.0586 456.275 96.0586 455.523ZM106.41 458.395V460.309H104.32V465.816C104.32 466.832 104.828 467.037 105.453 467.047C105.746 467.057 106.234 467.027 106.547 467.008V469.039C106.254 469.088 105.775 469.146 105.141 469.137C103.266 469.146 101.82 468.219 101.84 466.227V460.309H100.316V458.395H101.84V455.855H104.32V458.395H106.41ZM117.016 469.195C114.525 469.186 112.641 467.193 112.641 463.707C112.641 460.172 114.574 458.258 117.035 458.258C118.9 458.258 119.682 459.381 120.062 460.133H120.16V454.859H122.641V469H120.199V467.32H120.062C119.662 468.102 118.852 469.186 117.016 469.195ZM115.18 463.688C115.18 465.689 116.059 467.145 117.699 467.145C119.311 467.145 120.219 465.758 120.219 463.688C120.219 461.627 119.32 460.299 117.699 460.289C116.039 460.299 115.18 461.715 115.18 463.688ZM131.938 464.547V458.395H134.418V469H132.016V467.125H131.898C131.41 468.307 130.297 469.137 128.715 469.137C126.615 469.137 125.17 467.691 125.16 465.152V458.395H127.66V464.762C127.66 466.109 128.461 466.969 129.672 466.969C130.766 466.969 131.938 466.168 131.938 464.547ZM141.508 469.215C138.314 469.215 136.352 467.086 136.352 463.766C136.352 460.484 138.344 458.258 141.371 458.258C143.969 458.258 146.215 459.889 146.215 463.609V464.391H138.812C138.852 466.197 139.916 467.271 141.527 467.262C142.621 467.271 143.354 466.803 143.676 466.168H146.117C145.668 468.004 143.969 469.215 141.508 469.215ZM138.822 462.691H143.832C143.822 461.246 142.846 460.191 141.41 460.191C139.916 460.191 138.91 461.344 138.822 462.691ZM150.531 464.664C150.551 462.174 151.254 461.412 152.484 460.66C153.314 460.123 153.959 459.469 153.949 458.492C153.959 457.398 153.1 456.695 152.035 456.695C151.068 456.695 150.131 457.32 150.062 458.629H147.621C147.689 456.002 149.643 454.664 152.055 454.664C154.691 454.664 156.498 456.129 156.508 458.453C156.498 460.045 155.707 461.08 154.438 461.832C153.305 462.525 152.836 463.199 152.816 464.664V464.84H150.531V464.664ZM150.219 467.633C150.209 466.812 150.902 466.139 151.742 466.129C152.553 466.139 153.246 466.812 153.246 467.633C153.246 468.473 152.553 469.156 151.742 469.156C150.902 469.156 150.209 468.473 150.219 467.633Z" fill="#171717"/>
<rect x="16" y="482" width="198" height="44" rx="10" fill="#F6F5FA"/>
<path d="M47.25 511V509.438L52.1523 504.496C53.7051 502.885 54.4766 501.986 54.4766 500.746C54.4766 499.35 53.3438 498.461 51.8594 498.461C50.2871 498.461 49.291 499.457 49.2812 500.961H47.25C47.2305 498.373 49.2031 496.664 51.8984 496.664C54.623 496.664 56.5078 498.393 56.5273 500.688C56.5078 502.27 55.7656 503.529 53.1094 506.137L50.2383 509.047V509.164H56.7617V511H47.25ZM64.0664 511.195C60.7949 511.195 58.8711 508.559 58.8711 503.93C58.8711 499.33 60.8145 496.664 64.0664 496.664C67.3086 496.664 69.252 499.33 69.2617 503.93C69.252 508.559 67.3379 511.195 64.0664 511.195ZM61.0195 503.93C61.0098 507.455 62.1523 509.34 64.0664 509.34C65.9707 509.34 67.1133 507.455 67.1133 503.93C67.1133 500.414 65.9609 498.49 64.0664 498.48C62.1621 498.49 61.0195 500.414 61.0195 503.93ZM71.4883 511V509.438L76.3906 504.496C77.9434 502.885 78.7148 501.986 78.7148 500.746C78.7148 499.35 77.582 498.461 76.0977 498.461C74.5254 498.461 73.5293 499.457 73.5195 500.961H71.4883C71.4688 498.373 73.4414 496.664 76.1367 496.664C78.8613 496.664 80.7461 498.393 80.7656 500.688C80.7461 502.27 80.0039 503.529 77.3477 506.137L74.4766 509.047V509.164H81V511H71.4883ZM82.7578 508.246V506.508L89.0078 496.859H91.6641V506.43H93.5977V508.246H91.6641V511H89.6328V508.246H82.7578ZM85.0234 506.43H89.6328V499.418H89.4766L85.0234 506.312V506.43Z" fill="#171717"/>
<path opacity="0.3" d="M109.66 496.195L105.109 513.129H103.254L107.805 496.195H109.66Z" fill="#171717"/>
<path d="M124.621 496.859V511H122.453V499.008H122.375L118.996 501.215V499.164L122.512 496.859H124.621ZM133.586 496.859V511H131.418V499.008H131.34L127.961 501.215V499.164L131.477 496.859H133.586Z" fill="#171717"/>
<path opacity="0.3" d="M150.66 496.195L146.109 513.129H144.254L148.805 496.195H150.66Z" fill="#171717"/>
<path d="M160.25 511V509.438L165.152 504.496C166.705 502.885 167.477 501.986 167.477 500.746C167.477 499.35 166.344 498.461 164.859 498.461C163.287 498.461 162.291 499.457 162.281 500.961H160.25C160.23 498.373 162.203 496.664 164.898 496.664C167.623 496.664 169.508 498.393 169.527 500.688C169.508 502.27 168.766 503.529 166.109 506.137L163.238 509.047V509.164H169.762V511H160.25ZM171.52 508.246V506.508L177.77 496.859H180.426V506.43H182.359V508.246H180.426V511H178.395V508.246H171.52ZM173.785 506.43H178.395V499.418H178.238L173.785 506.312V506.43Z" fill="#171717"/>
<rect x="226" y="482" width="151" height="44" rx="10" fill="#F6F5FA"/>
<path d="M256.621 496.859V511H254.453V499.008H254.375L250.996 501.215V499.164L254.512 496.859H256.621ZM265.586 496.859V511H263.418V499.008H263.34L259.961 501.215V499.164L263.477 496.859H265.586Z" fill="#171717"/>
<path opacity="0.3" d="M278.637 511.137C277.875 511.127 277.24 510.512 277.25 509.75C277.24 508.988 277.875 508.363 278.637 508.363C279.389 508.363 280.014 508.988 280.023 509.75C280.014 510.512 279.389 511.127 278.637 511.137ZM277.25 502.035C277.24 501.273 277.875 500.648 278.637 500.648C279.389 500.648 280.014 501.273 280.023 502.035C280.014 502.797 279.389 503.412 278.637 503.422C277.875 503.412 277.24 502.797 277.25 502.035Z" fill="#171717"/>
<path d="M290.938 508.246V506.508L297.188 496.859H299.844V506.43H301.777V508.246H299.844V511H297.812V508.246H290.938ZM293.203 506.43H297.812V499.418H297.656L293.203 506.312V506.43ZM308.75 511.195C306.074 511.195 304.062 509.564 303.965 507.309H306.055C306.172 508.51 307.324 509.389 308.75 509.398C310.469 509.389 311.699 508.148 311.699 506.469C311.699 504.75 310.43 503.5 308.652 503.48C307.52 503.48 306.65 503.861 306.172 504.73H304.141L305.059 496.859H313.066V498.695H306.836L306.367 502.66H306.504C307.09 502.094 308.086 501.713 309.16 501.703C311.826 501.713 313.789 503.686 313.789 506.41C313.789 509.193 311.699 511.195 308.75 511.195Z" fill="#171717"/>
<path d="M324.445 511V496.859H329.484C332.775 496.859 334.387 498.832 334.387 501.449C334.387 504.057 332.766 506.039 329.484 506.039H326.594V511H324.445ZM326.594 504.203H329.27C331.35 504.213 332.219 503.041 332.219 501.449C332.219 499.848 331.35 498.705 329.27 498.695H326.594V504.203ZM336.652 496.859H339.27L343.742 507.816H343.918L348.391 496.859H351.008V511H348.957V500.785H348.82L344.68 510.98H342.98L338.82 500.766H338.703V511H336.652V496.859Z" fill="#171717"/>
<path d="M17.3086 569V554.859H19.8477V560.855H26.4297V554.859H28.9883V569H26.4297V562.984H19.8477V569H17.3086ZM36.1172 569.215C33.0215 569.215 31.0391 567.018 31.0391 563.746C31.0391 560.445 33.0215 558.258 36.1172 558.258C39.2227 558.258 41.2051 560.445 41.1953 563.746C41.2051 567.018 39.2227 569.215 36.1172 569.215ZM33.5586 563.727C33.5586 565.67 34.4082 567.223 36.1367 567.223C37.8359 567.223 38.6855 565.67 38.6758 563.727C38.6855 561.783 37.8359 560.221 36.1367 560.23C34.4082 560.221 33.5586 561.783 33.5586 563.727ZM45.043 569L42.0352 558.395H44.5742L46.4492 565.855H46.5469L48.4414 558.395H50.9609L52.875 565.816H52.9727L54.8281 558.395H57.3672L54.3594 569H51.7617L49.7695 561.812H49.6328L47.6406 569H45.043ZM65.9023 569L62.8945 558.395H65.4336L67.3086 565.855H67.4062L69.3008 558.395H71.8203L73.7344 565.816H73.832L75.6875 558.395H78.2266L75.2188 569H72.6211L70.6289 561.812H70.4922L68.5 569H65.9023ZM84.1445 569.215C81.0488 569.215 79.0664 567.018 79.0664 563.746C79.0664 560.445 81.0488 558.258 84.1445 558.258C87.25 558.258 89.2324 560.445 89.2227 563.746C89.2324 567.018 87.25 569.215 84.1445 569.215ZM81.5859 563.727C81.5859 565.67 82.4355 567.223 84.1641 567.223C85.8633 567.223 86.7129 565.67 86.7031 563.727C86.7129 561.783 85.8633 560.221 84.1641 560.23C82.4355 560.221 81.5859 561.783 81.5859 563.727ZM97.9336 564.547V558.395H100.414V569H98.0117V567.125H97.8945C97.4062 568.307 96.293 569.137 94.7109 569.137C92.6113 569.137 91.166 567.691 91.1562 565.152V558.395H93.6562V564.762C93.6562 566.109 94.457 566.969 95.668 566.969C96.7617 566.969 97.9336 566.168 97.9336 564.547ZM105.297 554.859V569H102.797V554.859H105.297ZM111.625 569.195C109.135 569.186 107.25 567.193 107.25 563.707C107.25 560.172 109.184 558.258 111.645 558.258C113.51 558.258 114.291 559.381 114.672 560.133H114.77V554.859H117.25V569H114.809V567.32H114.672C114.271 568.102 113.461 569.186 111.625 569.195ZM109.789 563.688C109.789 565.689 110.668 567.145 112.309 567.145C113.92 567.145 114.828 565.758 114.828 563.688C114.828 561.627 113.93 560.299 112.309 560.289C110.648 560.299 109.789 561.715 109.789 563.688ZM126.02 572.984C125.521 572.975 125.053 572.965 124.73 572.926V570.934C125.033 570.963 125.453 570.963 125.785 570.973C126.391 570.963 126.898 570.924 127.328 569.781L127.543 569.215L123.676 558.395H126.312L128.773 566.402H128.891L131.352 558.395H133.988L129.73 570.289C129.125 571.979 128.012 572.975 126.02 572.984ZM139.809 569.215C136.713 569.215 134.73 567.018 134.73 563.746C134.73 560.445 136.713 558.258 139.809 558.258C142.914 558.258 144.896 560.445 144.887 563.746C144.896 567.018 142.914 569.215 139.809 569.215ZM137.25 563.727C137.25 565.67 138.1 567.223 139.828 567.223C141.527 567.223 142.377 565.67 142.367 563.727C142.377 561.783 141.527 560.221 139.828 560.23C138.1 560.221 137.25 561.783 137.25 563.727ZM153.598 564.547V558.395H156.078V569H153.676V567.125H153.559C153.07 568.307 151.957 569.137 150.375 569.137C148.275 569.137 146.83 567.691 146.82 565.152V558.395H149.32V564.762C149.32 566.109 150.121 566.969 151.332 566.969C152.426 566.969 153.598 566.168 153.598 564.547ZM169.223 561.422C169.066 560.621 168.402 560.104 167.348 560.113C166.283 560.104 165.502 560.641 165.512 561.363C165.502 561.91 165.941 562.32 167.016 562.574L168.812 562.945C170.814 563.385 171.791 564.312 171.801 565.836C171.791 567.828 170.043 569.215 167.27 569.215C164.574 569.215 162.982 568.004 162.719 565.973H165.258C165.404 566.881 166.107 567.33 167.27 567.32C168.471 567.33 169.252 566.842 169.262 566.051C169.252 565.436 168.773 565.045 167.719 564.82L166.02 564.449C164.047 564.049 163.021 563.014 163.031 561.5C163.021 559.537 164.721 558.258 167.309 558.258C169.838 558.258 171.4 559.498 171.586 561.422H169.223ZM176.195 562.789V569H173.695V554.859H176.137V560.191H176.273C176.752 558.99 177.787 558.258 179.418 558.258C181.615 558.258 183.07 559.684 183.07 562.242V569H180.59V562.633C180.58 561.188 179.809 560.357 178.5 560.367C177.152 560.357 176.195 561.246 176.195 562.789ZM184.945 566.012C184.945 563.629 186.928 562.936 188.891 562.809C189.633 562.75 191.146 562.682 191.615 562.662L191.605 561.812C191.605 560.758 190.932 560.152 189.691 560.152C188.578 560.152 187.895 560.66 187.699 561.422H185.297C185.473 559.615 187.094 558.258 189.75 558.258C191.762 558.258 194.086 559.088 194.086 561.91V569H191.703V567.535H191.625C191.156 568.434 190.17 569.215 188.5 569.215C186.479 569.215 184.945 568.111 184.945 566.012ZM187.348 565.992C187.348 566.91 188.1 567.379 189.145 567.379C190.658 567.379 191.625 566.383 191.625 565.191L191.615 564.322C191.166 564.342 189.779 564.43 189.281 564.469C188.1 564.566 187.348 565.064 187.348 565.992ZM196.43 569V558.395H198.852V560.152H198.969C199.35 558.932 200.365 558.238 201.586 558.238C201.859 558.238 202.25 558.268 202.484 558.297V560.602C202.26 560.523 201.742 560.455 201.332 560.445C199.945 560.455 198.93 561.412 198.93 562.75V569H196.43ZM208.324 569.215C205.131 569.215 203.168 567.086 203.168 563.766C203.168 560.484 205.16 558.258 208.188 558.258C210.785 558.258 213.031 559.889 213.031 563.609V564.391H205.629C205.668 566.197 206.732 567.271 208.344 567.262C209.438 567.271 210.17 566.803 210.492 566.168H212.934C212.484 568.004 210.785 569.215 208.324 569.215ZM205.639 562.691H210.648C210.639 561.246 209.662 560.191 208.227 560.191C206.732 560.191 205.727 561.344 205.639 562.691ZM221.215 572.984C220.717 572.975 220.248 572.965 219.926 572.926V570.934C220.229 570.963 220.648 570.963 220.98 570.973C221.586 570.963 222.094 570.924 222.523 569.781L222.738 569.215L218.871 558.395H221.508L223.969 566.402H224.086L226.547 558.395H229.184L224.926 570.289C224.32 571.979 223.207 572.975 221.215 572.984ZM235.004 569.215C231.908 569.215 229.926 567.018 229.926 563.746C229.926 560.445 231.908 558.258 235.004 558.258C238.109 558.258 240.092 560.445 240.082 563.746C240.092 567.018 238.109 569.215 235.004 569.215ZM232.445 563.727C232.445 565.67 233.295 567.223 235.023 567.223C236.723 567.223 237.572 565.67 237.562 563.727C237.572 561.783 236.723 560.221 235.023 560.23C233.295 560.221 232.445 561.783 232.445 563.727ZM248.793 564.547V558.395H251.273V569H248.871V567.125H248.754C248.266 568.307 247.152 569.137 245.57 569.137C243.471 569.137 242.025 567.691 242.016 565.152V558.395H244.516V564.762C244.516 566.109 245.316 566.969 246.527 566.969C247.621 566.969 248.793 566.168 248.793 564.547ZM253.656 569V558.395H256.078V560.152H256.195C256.576 558.932 257.592 558.238 258.812 558.238C259.086 558.238 259.477 558.268 259.711 558.297V560.602C259.486 560.523 258.969 560.455 258.559 560.445C257.172 560.455 256.156 561.412 256.156 562.75V569H253.656ZM265.941 572.984V558.395H268.383V560.133H268.539C268.92 559.381 269.701 558.258 271.586 558.258C274.027 558.258 275.951 560.172 275.961 563.707C275.951 567.193 274.086 569.186 271.586 569.195C269.76 569.186 268.93 568.102 268.539 567.32H268.441V572.984H265.941ZM268.383 563.688C268.393 565.758 269.291 567.145 270.902 567.145C272.553 567.145 273.422 565.689 273.422 563.688C273.422 561.715 272.572 560.299 270.902 560.289C269.271 560.299 268.393 561.627 268.383 563.688ZM277.914 569V558.395H280.336V560.152H280.453C280.834 558.932 281.85 558.238 283.07 558.238C283.344 558.238 283.734 558.268 283.969 558.297V560.602C283.744 560.523 283.227 560.455 282.816 560.445C281.43 560.455 280.414 561.412 280.414 562.75V569H277.914ZM289.73 569.215C286.635 569.215 284.652 567.018 284.652 563.746C284.652 560.445 286.635 558.258 289.73 558.258C292.836 558.258 294.818 560.445 294.809 563.746C294.818 567.018 292.836 569.215 289.73 569.215ZM287.172 563.727C287.172 565.67 288.021 567.223 289.75 567.223C291.449 567.223 292.299 565.67 292.289 563.727C292.299 561.783 291.449 560.221 289.75 560.23C288.021 560.221 287.172 561.783 287.172 563.727ZM301.371 573.199C298.559 573.199 296.771 571.949 296.605 569.957H299.086C299.262 570.885 300.131 571.314 301.41 571.324C302.904 571.314 303.871 570.67 303.871 569.117V567.086H303.754C303.363 567.867 302.514 568.844 300.688 568.844C298.236 568.844 296.312 567.066 296.312 563.609C296.312 560.123 298.246 558.258 300.707 558.258C302.572 558.258 303.363 559.381 303.754 560.133H303.871V558.395H306.332V569.176C306.332 571.891 304.232 573.199 301.371 573.199ZM298.852 563.648C298.852 565.602 299.73 566.891 301.371 566.891C302.982 566.891 303.891 565.68 303.891 563.648C303.891 561.627 302.992 560.299 301.371 560.289C299.711 560.299 298.852 561.715 298.852 563.648ZM308.715 569V558.395H311.137V560.152H311.254C311.635 558.932 312.65 558.238 313.871 558.238C314.145 558.238 314.535 558.268 314.77 558.297V560.602C314.545 560.523 314.027 560.455 313.617 560.445C312.23 560.455 311.215 561.412 311.215 562.75V569H308.715ZM320.609 569.215C317.416 569.215 315.453 567.086 315.453 563.766C315.453 560.484 317.445 558.258 320.473 558.258C323.07 558.258 325.316 559.889 325.316 563.609V564.391H317.914C317.953 566.197 319.018 567.271 320.629 567.262C321.723 567.271 322.455 566.803 322.777 566.168H325.219C324.77 568.004 323.07 569.215 320.609 569.215ZM317.924 562.691H322.934C322.924 561.246 321.947 560.191 320.512 560.191C319.018 560.191 318.012 561.344 317.924 562.691ZM333.266 561.422C333.109 560.621 332.445 560.104 331.391 560.113C330.326 560.104 329.545 560.641 329.555 561.363C329.545 561.91 329.984 562.32 331.059 562.574L332.855 562.945C334.857 563.385 335.834 564.312 335.844 565.836C335.834 567.828 334.086 569.215 331.312 569.215C328.617 569.215 327.025 568.004 326.762 565.973H329.301C329.447 566.881 330.15 567.33 331.312 567.32C332.514 567.33 333.295 566.842 333.305 566.051C333.295 565.436 332.816 565.045 331.762 564.82L330.062 564.449C328.09 564.049 327.064 563.014 327.074 561.5C327.064 559.537 328.764 558.258 331.352 558.258C333.881 558.258 335.443 559.498 335.629 561.422H333.266ZM343.754 561.422C343.598 560.621 342.934 560.104 341.879 560.113C340.814 560.104 340.033 560.641 340.043 561.363C340.033 561.91 340.473 562.32 341.547 562.574L343.344 562.945C345.346 563.385 346.322 564.312 346.332 565.836C346.322 567.828 344.574 569.215 341.801 569.215C339.105 569.215 337.514 568.004 337.25 565.973H339.789C339.936 566.881 340.639 567.33 341.801 567.32C343.002 567.33 343.783 566.842 343.793 566.051C343.783 565.436 343.305 565.045 342.25 564.82L340.551 564.449C338.578 564.049 337.553 563.014 337.562 561.5C337.553 559.537 339.252 558.258 341.84 558.258C344.369 558.258 345.932 559.498 346.117 561.422H343.754ZM350.609 564.664C350.629 562.174 351.332 561.412 352.562 560.66C353.393 560.123 354.037 559.469 354.027 558.492C354.037 557.398 353.178 556.695 352.113 556.695C351.146 556.695 350.209 557.32 350.141 558.629H347.699C347.768 556.002 349.721 554.664 352.133 554.664C354.77 554.664 356.576 556.129 356.586 558.453C356.576 560.045 355.785 561.08 354.516 561.832C353.383 562.525 352.914 563.199 352.895 564.664V564.84H350.609V564.664ZM350.297 567.633C350.287 566.812 350.98 566.139 351.82 566.129C352.631 566.139 353.324 566.812 353.324 567.633C353.324 568.473 352.631 569.156 351.82 569.156C350.98 569.156 350.287 568.473 350.297 567.633Z" fill="#171717"/>
<rect x="16" y="582" width="198" height="44" rx="10" fill="#F6F5FA"/>
<path d="M43.0938 599.672V598.188H51.8594V599.672H48.3438V609.5H46.625V599.672H43.0938ZM55.1406 604.469V609.5H53.4688V598.188H55.1094V602.406H55.2188C55.6172 601.484 56.4141 600.906 57.7344 600.906C59.4766 600.906 60.6406 601.984 60.6406 604.109V609.5H58.9688V604.312C58.9688 603.062 58.2969 602.344 57.1719 602.344C55.9922 602.344 55.1406 603.117 55.1406 604.469ZM62.6562 609.5V601.016H64.2656V602.359H64.3594C64.6719 601.453 65.5234 600.883 66.5156 600.891C66.7188 600.883 67.0469 600.906 67.2188 600.922V602.516C67.0781 602.484 66.6875 602.414 66.3438 602.422C65.1875 602.414 64.3281 603.219 64.3281 604.328V609.5H62.6562ZM71.7812 609.672C69.375 609.672 67.8047 607.922 67.8125 605.297C67.8047 602.656 69.375 600.906 71.7812 600.906C74.1719 600.906 75.7344 602.656 75.7344 605.297C75.7344 607.922 74.1719 609.672 71.7812 609.672ZM69.4844 605.297C69.4844 606.914 70.2266 608.281 71.7812 608.281C73.3125 608.281 74.0469 606.914 74.0469 605.297C74.0469 603.672 73.3125 602.289 71.7812 602.281C70.2266 602.289 69.4844 603.672 69.4844 605.297ZM82.7656 605.969V601.016H84.4219V609.5H82.7969V608.031H82.7031C82.3125 608.938 81.4453 609.609 80.1719 609.609C78.5312 609.609 77.375 608.508 77.375 606.406V601.016H79.0469V606.203C79.0469 607.359 79.75 608.094 80.7656 608.094C81.6953 608.094 82.7656 607.414 82.7656 605.969ZM90.0156 612.859C87.875 612.859 86.4609 611.914 86.3125 610.328H88.0156C88.1797 611.133 88.9297 611.523 90.0312 611.516C91.3594 611.523 92.1953 610.945 92.2031 609.625V607.953H92.0938C91.7969 608.5 91.1875 609.375 89.625 609.375C87.625 609.375 86.0781 607.883 86.0781 605.172C86.0781 602.461 87.6016 600.906 89.6406 600.906C91.2188 600.906 91.7969 601.859 92.1094 602.391H92.2188V601.016H93.8438V609.688C93.8516 611.867 92.2031 612.859 90.0156 612.859ZM87.7812 605.203C87.7734 606.867 88.5391 607.992 90 608C91.4219 607.992 92.2188 606.953 92.2188 605.203C92.2188 603.484 91.4375 602.32 90 602.328C88.5234 602.32 87.7734 603.578 87.7812 605.203ZM97.5469 604.469V609.5H95.875V598.188H97.5156V602.406H97.625C98.0234 601.484 98.8203 600.906 100.141 600.906C101.883 600.906 103.047 601.984 103.047 604.109V609.5H101.375V604.312C101.375 603.062 100.703 602.344 99.5781 602.344C98.3984 602.344 97.5469 603.117 97.5469 604.469ZM109.109 609.5V598.188H113.141C115.773 598.188 117.062 599.766 117.062 601.859C117.062 603.945 115.766 605.531 113.141 605.531H110.828V609.5H109.109ZM110.828 604.062H112.969C114.633 604.07 115.328 603.133 115.328 601.859C115.328 600.578 114.633 599.664 112.969 599.656H110.828V604.062ZM120.406 604.469V609.5H118.734V598.188H120.375V602.406H120.484C120.883 601.484 121.68 600.906 123 600.906C124.742 600.906 125.906 601.984 125.906 604.109V609.5H124.234V604.312C124.234 603.062 123.562 602.344 122.438 602.344C121.258 602.344 120.406 603.117 120.406 604.469ZM131.516 609.672C129.109 609.672 127.539 607.922 127.547 605.297C127.539 602.656 129.109 600.906 131.516 600.906C133.906 600.906 135.469 602.656 135.469 605.297C135.469 607.922 133.906 609.672 131.516 609.672ZM129.219 605.297C129.219 606.914 129.961 608.281 131.516 608.281C133.047 608.281 133.781 606.914 133.781 605.297C133.781 603.672 133.047 602.289 131.516 602.281C129.961 602.289 129.219 603.672 129.219 605.297ZM141.078 601.016V602.344H139.344V607C139.352 607.961 139.82 608.133 140.359 608.141C140.602 608.141 140.969 608.117 141.203 608.094V609.547C140.977 609.578 140.617 609.609 140.156 609.609C138.852 609.609 137.672 608.891 137.688 607.344V602.344H136.438V601.016H137.688V598.984H139.344V601.016H141.078ZM146.203 609.672C143.797 609.672 142.227 607.922 142.234 605.297C142.227 602.656 143.797 600.906 146.203 600.906C148.594 600.906 150.156 602.656 150.156 605.297C150.156 607.922 148.594 609.672 146.203 609.672ZM143.906 605.297C143.906 606.914 144.648 608.281 146.203 608.281C147.734 608.281 148.469 606.914 148.469 605.297C148.469 603.672 147.734 602.289 146.203 602.281C144.648 602.289 143.906 603.672 143.906 605.297Z" fill="#171717"/>
<path d="M175.5 600L182.793 607.293C183.183 607.683 183.817 607.683 184.207 607.293L191.5 600" stroke="#171717" stroke-width="4" stroke-linecap="round"/>
<path d="M339.803 84.0703C339.803 80.0312 341.006 76.6582 343.025 73.7793H345.604C344.121 75.917 342.639 80.2246 342.639 84.0703C342.639 87.916 344.121 92.2344 345.604 94.3828H343.025C341.006 91.4824 339.803 88.1201 339.803 84.0703ZM350.008 74.4453L353.424 80.1602H353.553L357.012 74.4453H360.191L355.4 82.2227L360.277 90H357.033L353.553 84.3281H353.424L349.943 90H346.721L351.641 82.2227L346.785 74.4453H350.008ZM367.195 84.0703C367.195 88.1201 365.992 91.4824 363.973 94.3828H361.395C362.877 92.2344 364.359 87.916 364.359 84.0703C364.359 80.2246 362.877 75.917 361.395 73.7793H363.973C365.992 76.6582 367.195 80.0312 367.195 84.0703Z" fill="#171717"/>
</g>
<defs>
<linearGradient id="paint0_linear_2350_1556" x1="196.5" y1="0" x2="196.5" y2="852" gradientUnits="userSpaceOnUse">
<stop stop-color="#F7F3F1"/>
<stop offset="1" stop-color="white"/>
</linearGradient>
<clipPath id="clip0_2350_1556">
<rect width="393" height="852" rx="30" fill="white"/>
</clipPath>
</defs>
</svg>
